# Blender 5.1.1
# www.blender.org
mtllib nuvoletta.mtl
o Mball.011
v 0.600000 1.720505 -5.400000
v 1.000000 1.470159 -5.400000
v 1.000000 1.697143 -5.000000
v 0.840793 1.800000 -5.000000
v 0.600000 1.800000 -5.262212
v 0.600000 1.906002 -5.000000
v 0.600000 2.033615 -4.600000
v 1.000000 1.800000 -4.632846
v 1.000000 1.808606 -4.600000
v 0.600000 2.185971 -4.200000
v 1.000000 1.901642 -4.200000
v 1.000000 2.016791 -3.800000
v 0.845045 2.200000 -3.800000
v 0.600000 2.200000 -4.170433
v 1.000000 2.200000 -3.470083
v 0.600000 2.461197 -3.800000
v 1.000000 2.239572 -3.400000
v 0.697734 2.600000 -3.400000
v 0.600000 2.600000 -3.585241
v 0.600000 2.674088 -3.400000
v 0.600000 2.719259 -3.000000
v 0.754997 2.600000 -3.000000
v 0.600000 2.618046 -2.600000
v 0.623795 2.600000 -2.600000
v 0.600000 2.600000 -2.564307
v 0.600000 2.312097 -2.200000
v 0.970469 2.200000 -2.600000
v 0.695088 2.200000 -2.200000
v 1.000000 2.141248 -2.600000
v 1.000000 1.800000 -2.370640
v 0.916356 1.800000 -2.200000
v 1.000000 1.612384 -2.200000
v 1.000000 1.671919 -1.800000
v 0.857765 1.800000 -1.800000
v 1.111110 1.800000 -2.600000
v 1.155934 1.400000 -2.600000
v 1.065932 1.400000 -2.200000
v 1.087997 1.000000 -2.200000
v 1.187382 1.000000 -2.600000
v 1.061329 0.600000 -2.200000
v 1.226185 0.600000 -2.600000
v 1.105971 0.200000 -2.200000
v 1.260562 0.200000 -2.600000
v 1.246309 -0.200000 -2.200000
v 1.244140 -0.200000 -2.600000
v 1.270358 -0.600000 -2.200000
v 1.141202 -0.600000 -2.600000
v 1.000000 -0.897828 -2.600000
v 1.000000 -1.000000 -2.480257
v 1.144385 -1.000000 -2.200000
v 1.000000 -1.205547 -2.200000
v 1.229460 -0.600000 -3.000000
v 1.000000 -0.832485 -3.000000
v 1.400000 -0.600000 -3.236875
v 1.400000 -0.707338 -3.400000
v 1.000000 -0.988068 -3.400000
v 1.400000 -0.386209 -3.000000
v 1.400000 -0.844145 -3.800000
v 1.191570 -1.000000 -3.800000
v 1.000000 -1.000000 -3.428036
v 1.000000 -1.125004 -3.800000
v 0.600000 -1.195417 -3.400000
v 0.977986 -1.000000 -3.400000
v 0.600000 -1.340773 -3.800000
v 1.000000 -1.131649 -4.200000
v 0.600000 -1.369398 -4.200000
v 0.200000 -1.327212 -3.400000
v 0.454319 -1.400000 -3.800000
v 0.200000 -1.400000 -3.581296
v 0.200000 -1.468415 -3.800000
v 0.530255 -1.400000 -4.200000
v 0.200000 -1.496228 -4.200000
v -0.200000 -1.473961 -3.800000
v -0.200000 -1.501680 -4.200000
v -0.568023 -1.400000 -4.200000
v -0.493709 -1.400000 -3.800000
v -0.600000 -1.356073 -3.800000
v -0.600000 -1.386659 -4.200000
v -0.312301 -1.400000 -4.600000
v -0.600000 -1.291691 -4.600000
v -0.200000 -1.400000 -4.711924
v -0.200000 -1.356324 -5.000000
v -0.600000 -1.176928 -5.000000
v -0.200000 -1.425099 -4.600000
v 0.200000 -1.432663 -4.600000
v 0.200000 -1.400000 -4.883205
v 0.358035 -1.400000 -4.600000
v 0.200000 -1.392225 -5.000000
v 0.600000 -1.314580 -4.600000
v 0.600000 -1.297467 -5.000000
v 0.600000 -1.281340 -5.400000
v 0.200000 -1.360550 -5.400001
v 1.000000 -1.048524 -4.600000
v 1.000000 -1.027695 -5.000000
v -0.200000 -1.299192 -5.400000
v -0.600000 -1.101571 -5.400000
v -0.200000 -1.202503 -5.800000
v -0.578591 -1.000000 -5.800000
v -0.600000 -1.000000 -5.768268
v -0.600000 -0.988813 -5.800000
v -0.200000 -1.000000 -6.198987
v 0.200000 -1.284175 -5.800000
v 0.200000 -1.110391 -6.200000
v -0.198489 -1.000000 -6.200000
v -0.200000 -0.999257 -6.200000
v 0.200000 -1.000000 -6.344870
v 0.600000 -1.034152 -6.200000
v 0.600000 -1.000000 -6.245672
v 0.666715 -1.000000 -6.200000
v 0.600000 -1.213731 -5.800000
v 0.947159 -1.000000 -5.800000
v 1.000000 -1.024489 -5.400001
v 1.000000 -1.000000 -5.596009
v 1.000000 -0.948320 -5.800000
v 1.024336 -1.000000 -5.400000
v 1.282377 -0.600000 -5.400000
v 1.223491 -0.600000 -5.800000
v 1.398361 -0.200000 -5.400000
v 1.312149 -0.200000 -5.800000
v 1.136941 -0.200000 -6.200000
v 1.047786 -0.600000 -6.200000
v 1.000000 -0.600000 -6.262152
v 1.000000 -0.200000 -6.373250
v 1.063544 0.200000 -6.200000
v 1.000000 0.200000 -6.272871
v 1.000000 0.344558 -6.200000
v 1.298108 0.200000 -5.800000
v 1.195183 0.600000 -5.800000
v 1.000000 0.600000 -6.050453
v 1.400000 0.200000 -5.512795
v 1.400000 0.600000 -5.404812
v 1.000000 0.964029 -5.800000
v 1.400000 0.611200 -5.400000
v 1.288095 1.000000 -5.400000
v 1.000000 1.000000 -5.773786
v 1.400000 1.000000 -5.223670
v 1.400000 1.269049 -5.000000
v 1.307316 1.400000 -5.000000
v 1.062186 1.400000 -5.400001
v 1.400000 1.400000 -4.783460
v 1.535823 1.000000 -5.000000
v 1.402385 0.600000 -5.400000
v 1.623867 0.600000 -5.000000
v 1.607080 0.200000 -5.000000
v 1.438994 0.200000 -5.400000
v 1.400000 -0.189605 -5.400000
v 1.400000 -0.200000 -5.391475
v 1.504237 -0.200000 -5.000000
v 1.400000 -0.444711 -5.000000
v 1.800000 0.071949 -4.600000
v 1.800000 0.200000 -4.655167
v 1.697369 -0.200000 -4.600000
v 1.831029 0.200000 -4.600000
v 1.840854 0.600000 -4.600000
v 1.800000 0.600000 -4.681424
v 1.989271 0.200000 -4.200000
v 1.982365 0.600000 -4.200000
v 1.800000 0.791747 -4.600000
v 1.844756 1.000000 -4.200000
v 1.800000 1.000000 -4.375636
v 1.800000 1.074715 -4.200000
v 1.800000 1.115928 -3.800000
v 1.874648 1.000000 -3.800000
v 1.800000 1.000000 -3.438080
v 1.800000 0.974134 -3.400000
v 2.029842 0.600000 -3.800000
v 1.940792 0.600000 -3.400000
v 1.950424 0.200000 -3.400000
v 2.039670 0.200000 -3.800000
v 1.815672 -0.200000 -3.400000
v 1.917153 -0.200000 -3.800000
v 1.800000 -0.227135 -3.400000
v 1.800000 -0.404963 -3.800000
v 1.800000 -0.200000 -3.370200
v 1.651319 -0.600000 -3.800000
v 1.516668 -0.600000 -3.400000
v 1.800000 -0.336129 -4.200000
v 1.614385 -0.600000 -4.200000
v 1.400000 -0.822081 -4.200000
v 1.441003 -0.600000 -4.600000
v 1.400000 -0.649558 -4.600000
v 1.400000 -0.600000 -4.692956
v 1.317732 -0.600000 -5.000000
v 1.026594 -1.000000 -5.000000
v 1.054575 -1.000000 -4.600000
v 1.182632 -1.000000 -4.200000
v 1.800000 -0.200000 -4.394629
v 1.872057 -0.200000 -4.200000
v 1.800000 0.200000 -3.142648
v 1.800000 0.600000 -3.154631
v 1.674382 0.200000 -3.000000
v 1.675189 0.600000 -3.000000
v 1.400000 0.200000 -2.750484
v 1.400000 0.600000 -2.747990
v 1.400000 1.000000 -2.810823
v 1.559800 1.000000 -3.000000
v 1.400000 1.363192 -3.000000
v 1.400000 -0.200000 -2.862743
v 1.520548 -0.200000 -3.000000
v 1.787454 1.000000 -3.400000
v 1.531712 1.400000 -3.400000
v 1.582282 1.400000 -3.800000
v 1.400000 1.580628 -3.400000
v 1.400000 1.599802 -3.800000
v 1.400000 1.563083 -4.200000
v 1.557721 1.400000 -4.200000
v 1.204908 1.800000 -3.800000
v 1.129632 1.800000 -4.200000
v 1.011479 1.800000 -4.600000
v 1.400000 1.470569 -4.599999
v 1.400000 1.400000 -3.036259
v 1.246614 1.800000 -3.400000
v 1.726667 1.000000 -4.600000
v 0.971984 1.000000 -5.800000
v 0.600000 1.303642 -5.800000
v 1.000000 1.400000 -5.468176
v 0.600000 1.400000 -5.724111
v 0.600000 1.000000 -6.035918
v 0.200000 1.369294 -5.800000
v 0.200000 1.400000 -5.773877
v 0.600000 0.777244 -6.200000
v 0.824059 0.600000 -6.200000
v 0.600000 0.600000 -6.323349
v 0.200000 0.869544 -6.200000
v 0.200000 0.600000 -6.392824
v -0.200000 0.861967 -6.200000
v -0.200000 0.600000 -6.386878
v -0.200000 0.200000 -6.570023
v 0.048175 0.200000 -6.600000
v 0.200000 0.230719 -6.600000
v -0.200000 0.058992 -6.600000
v -0.200000 -0.200000 -6.618813
v 0.200000 -0.200000 -6.696468
v 0.200000 0.200000 -6.614333
v -0.200000 -0.347859 -6.600000
v 0.028123 -0.600000 -6.599999
v 0.200000 -0.600000 -6.623327
v 0.200000 -0.651284 -6.599999
v 0.444908 -0.600000 -6.600000
v -0.200000 -0.600000 -6.524050
v -0.600000 -0.600000 -6.322056
v -0.259753 -0.200000 -6.600000
v -0.600000 -0.200000 -6.499157
v -1.000000 -0.455497 -6.200000
v -0.804898 -0.600000 -6.200000
v -1.000000 -0.200000 -6.348136
v -0.600000 0.200000 -6.508996
v -1.000000 0.200000 -6.409045
v -1.400000 0.093564 -6.200000
v -1.258445 -0.200000 -6.200000
v -1.400000 0.200000 -6.210493
v -1.400000 0.331117 -6.200000
v -1.000000 0.600000 -6.300455
v -1.256517 0.600000 -6.200000
v -1.000000 0.757400 -6.200000
v -1.400000 0.876706 -5.800000
v -1.400000 0.600000 -6.102984
v -1.000000 1.000000 -5.940113
v -1.203811 1.000000 -5.800000
v -1.400000 0.963470 -5.400000
v -1.354109 1.000000 -5.400000
v -1.000000 1.219239 -5.400000
v -1.000000 1.083883 -5.800001
v -1.000000 1.254653 -5.000000
v -1.289791 1.000000 -5.000000
v -0.624786 1.400000 -5.400000
v -0.824025 1.400000 -5.000000
v -0.600000 1.601452 -5.000000
v -0.600000 1.413451 -5.400000
v -0.600000 1.400000 -5.425673
v -0.200000 1.400000 -5.665793
v -0.200000 1.638049 -5.400000
v -0.600000 1.190414 -5.800000
v -0.200000 1.277243 -5.800000
v -0.600000 1.000000 -6.043081
v -0.200000 1.000000 -6.079763
v 0.200000 1.000000 -6.097354
v -0.600000 1.800000 -4.685681
v -0.663485 1.800000 -4.600000
v -0.962471 1.400000 -4.600000
v -1.000000 1.742134 -4.200000
v -1.000000 1.400000 -4.508092
v -0.968620 1.800000 -4.200000
v -0.600000 1.859602 -4.600000
v -0.600000 2.200000 -4.226261
v -0.643439 2.200000 -4.200000
v -0.600000 2.232778 -4.200000
v -0.200000 2.200000 -4.418560
v -0.200000 2.383064 -4.200000
v -0.200000 2.600000 -3.979303
v -0.600000 2.600000 -3.859806
v -0.600000 2.644111 -3.800000
v -0.200000 2.735257 -3.800000
v -0.600000 2.826757 -3.400000
v -0.200000 2.904849 -3.400000
v -0.600000 2.866573 -3.000000
v -0.200000 2.943014 -3.000000
v -0.600000 2.777720 -2.600000
v -0.200000 2.859534 -2.600000
v -0.200000 2.626572 -2.200000
v -0.384535 2.600000 -2.200000
v -0.600000 2.600000 -2.288716
v -0.600000 2.525016 -2.200000
v -0.200000 2.600000 -2.169540
v -0.200000 2.200000 -1.859730
v -0.600000 2.200000 -1.935564
v -0.600000 1.964776 -1.800000
v -0.200000 2.074165 -1.800000
v -0.200000 1.800000 -1.621531
v -0.600000 1.800000 -1.720690
v -0.600000 1.400000 -1.501565
v -0.200000 1.621922 -1.400000
v -0.471302 1.400000 -1.400000
v -0.600000 1.310402 -1.400000
v -1.000000 1.140870 -1.400000
v -1.000000 1.400000 -1.629219
v -1.400000 1.280450 -1.800000
v -1.313939 1.400000 -1.800000
v -1.180906 1.000000 -1.400000
v -1.400000 1.000000 -1.663838
v -1.000000 1.715568 -1.800000
v -1.400000 0.630694 -1.400000
v -1.400000 0.914700 -1.000000
v -1.325790 1.000000 -1.000000
v -1.557955 0.600000 -1.000000
v -1.409156 0.600000 -1.400000
v -1.400000 1.000000 -0.905078
v -1.563598 1.000000 -0.600000
v -1.748807 0.600000 -0.600000
v -1.400000 1.179205 -0.600000
v -1.000000 1.215805 -1.000000
v -1.000000 1.400000 -0.632541
v -1.027958 1.400000 -0.600000
v -1.000000 1.410992 -0.600000
v -0.600000 1.400000 -0.815395
v -0.600000 1.482512 -0.600000
v -1.000000 1.452210 -0.200000
v -0.600000 1.529550 -0.200000
v -0.600000 1.451047 0.200000
v -0.859545 1.400000 0.200000
v -1.000000 1.400000 0.065937
v -1.000000 1.353006 0.200000
v -1.000000 1.077095 0.600000
v -0.600000 1.400000 0.318282
v -0.600000 1.226538 0.600000
v -0.200000 1.400000 0.292703
v -0.200000 1.232255 0.600000
v -0.200000 1.435242 0.200000
v -0.048769 1.400000 0.200000
v -0.200000 1.498146 -0.200000
v 0.125199 1.400000 -0.200000
v 0.200000 1.314008 0.200000
v 0.200000 1.370341 -0.200000
v 0.200000 1.400000 -0.436027
v -0.200000 1.466626 -0.600000
v 0.200000 1.453669 -0.600000
v 0.488090 1.400000 -0.600000
v 0.200000 1.654803 -1.000000
v 0.600000 1.699996 -1.000000
v 0.600000 1.400000 -0.645857
v 0.600000 1.356530 -0.600000
v 1.000000 1.400000 -0.887896
v 1.000000 1.000000 -0.687402
v 0.930651 1.000000 -0.600000
v 1.000000 0.721425 -0.600000
v 1.222492 1.000000 -1.000000
v 1.173895 0.600000 -1.000000
v 1.016611 0.600000 -0.600000
v 1.331185 1.000000 -1.400000
v 1.280251 0.600000 -1.400000
v 1.259901 1.000000 -1.800000
v 1.225908 0.600000 -1.800000
v 1.000000 0.600000 -0.528784
v 0.600000 1.127268 -0.200000
v 0.733186 1.000000 -0.200000
v 0.600000 1.066399 0.200000
v 0.675165 1.000000 0.200000
v 0.983062 0.600000 0.200000
v 0.998550 0.600000 -0.200000
v 1.000000 0.563465 0.200000
v 1.000000 0.596578 -0.200000
v 1.126063 0.200000 -0.200000
v 1.119031 0.200000 0.200000
v 1.115766 -0.200000 0.200000
v 1.123392 -0.200000 -0.200000
v 1.000000 -0.530714 0.200000
v 1.000000 -0.562885 -0.200000
v 1.095709 -0.200000 -0.600000
v 1.003290 -0.600000 -0.600000
v 1.000000 -0.600000 -0.574881
v 1.000000 -0.606807 -0.600000
v 1.109438 -0.600000 -1.000000
v 1.000000 -0.874153 -1.000000
v 0.916048 -1.000000 -1.000000
v 0.699097 -1.000000 -0.600000
v 1.000000 -1.000000 -1.130491
v 0.600000 -0.998841 -0.200000
v 0.980982 -0.600000 -0.200000
v 0.600000 -1.000000 -0.212813
v 0.600000 -1.070611 -0.600000
v 0.600000 -0.963238 0.200000
v 0.961402 -0.600000 0.200000
v 0.600000 -0.777084 0.600000
v 0.776458 -0.600000 0.600000
v 0.600000 -0.600000 0.777176
v 0.600000 -0.200000 0.963943
v 0.961529 -0.200000 0.600000
v 0.600000 0.200000 0.971050
v 0.964587 0.200000 0.600000
v 0.600000 0.600000 0.813211
v 0.802062 0.600000 0.600000
v 0.600000 0.844741 0.600000
v 0.200000 0.652939 1.000000
v 0.200000 1.000000 0.738100
v 0.405926 1.000000 0.600000
v 0.275169 0.600000 1.000000
v 0.600000 1.000000 0.364040
v 0.200000 1.115138 0.600000
v 0.200000 0.600000 1.028431
v -0.200000 0.790386 1.000000
v -0.200000 0.600000 1.093879
v -0.200000 0.200000 1.189730
v 0.200000 0.200000 1.145696
v -0.200000 -0.200000 1.164798
v 0.200000 -0.200000 1.130536
v -0.200000 -0.599856 1.000000
v 0.200000 -0.548069 1.000000
v 0.200000 -0.600000 0.970434
v -0.200000 -0.600000 0.999916
v -0.200000 -0.998053 0.600000
v 0.200000 -0.969693 0.600000
v 0.200000 -1.000000 0.546297
v -0.200000 -1.000000 0.596618
v -0.200000 -1.160015 0.200000
v 0.200000 -1.128099 0.200000
v 0.200000 -1.163827 -0.200000
v -0.200000 -1.192695 -0.200000
v 0.200000 -1.216213 -0.600000
v -0.200000 -1.215525 -0.600000
v 0.200000 -1.372922 -1.000000
v -0.200000 -1.314128 -1.000000
v 0.200000 -1.400000 -1.049870
v -0.200000 -1.400000 -1.172419
v -0.200000 -1.512387 -1.400000
v 0.200000 -1.579706 -1.400000
v 0.200000 -1.648574 -1.800000
v -0.200000 -1.584933 -1.800000
v 0.200000 -1.575404 -2.200000
v -0.200000 -1.507869 -2.200000
v 0.200000 -1.400000 -2.589395
v -0.200000 -1.400000 -2.447979
v -0.200000 -1.334872 -2.600000
v 0.200000 -1.395176 -2.600000
v 0.200000 -1.273689 -3.000000
v -0.200000 -1.239932 -3.000000
v 0.600000 -1.285394 -2.600000
v 0.600000 -1.135497 -3.000000
v -0.600000 -1.105758 -2.600000
v -0.600000 -1.064542 -3.000000
v -0.200000 -1.326892 -3.400000
v -0.600000 -1.186742 -3.400000
v -0.893008 -1.000000 -3.400000
v -0.711956 -1.000000 -3.000000
v -1.000000 -0.825365 -3.000000
v -1.000000 -0.921288 -3.400000
v -1.351022 -0.600000 -3.400000
v -1.325069 -0.600000 -3.000000
v -1.000000 -1.000000 -3.613821
v -1.063146 -1.000000 -3.800000
v -1.342007 -0.600000 -3.800000
v -1.400000 -0.545345 -3.400000
v -1.400000 -0.492395 -3.800000
v -1.327060 -0.600000 -4.200000
v -1.400000 -0.346664 -4.200000
v -1.304679 -0.600000 -4.600000
v -1.400000 -0.436950 -4.600000
v -1.000000 -0.981839 -4.600000
v -1.098856 -1.000000 -4.200000
v -1.000000 -1.000000 -4.559599
v -1.000000 -0.898686 -5.000000
v -1.358169 -0.600000 -5.000000
v -1.000000 -0.867711 -5.400000
v -1.370916 -0.600000 -5.400000
v -1.400000 -0.554978 -5.000000
v -1.400000 -0.573606 -5.400001
v -1.229028 -0.600000 -5.800000
v -1.400000 -0.455732 -5.800000
v -1.685401 -0.200000 -5.400000
v -1.626113 -0.200000 -5.000000
v -1.777627 0.200000 -5.400000
v -1.698808 0.200000 -5.000000
v -1.691043 0.600000 -5.400000
v -1.598390 0.600000 -5.000000
v -1.400000 0.885629 -5.000000
v -1.495258 -0.200000 -4.600000
v -1.536415 0.200000 -4.600000
v -1.000000 -0.756501 -5.800000
v -1.000000 -0.600000 -6.056064
v -0.600000 -0.738427 -6.200000
v -0.858169 -1.000000 -5.000000
v -0.776045 -1.000000 -5.400000
v -0.982244 -1.000000 -4.600000
v -1.429384 -0.200000 -4.200000
v -1.527303 -0.200000 -3.800000
v -1.643156 -0.200000 -3.400000
v -1.800000 0.190038 -3.400000
v -1.622488 0.200000 -3.800000
v -1.800000 0.200000 -3.406895
v -1.640636 0.600000 -3.800000
v -1.800000 0.600000 -3.520321
v -1.587963 1.000000 -3.800000
v -1.800000 1.000000 -3.460246
v -1.400000 0.600000 -4.192250
v -1.400000 1.000000 -4.052253
v -1.400000 1.400000 -3.893462
v -1.475537 1.400000 -3.800000
v -1.400000 1.603197 -3.800000
v -1.400000 1.800000 -3.688817
v -1.553999 1.800000 -3.400000
v -1.727147 1.400000 -3.400000
v -1.400000 2.081002 -3.400000
v -1.400000 2.186695 -3.000000
v -1.651675 1.800000 -3.000000
v -1.400000 2.096414 -2.600000
v -1.619276 1.800000 -2.600000
v -1.800000 1.494158 -2.600000
v -1.800000 1.514297 -3.000000
v -1.426277 1.800000 -2.200000
v -1.699716 1.400000 -2.200000
v -1.800000 1.400000 -2.420185
v -1.800000 1.191818 -2.200000
v -1.868805 1.000000 -2.200000
v -1.988854 1.000000 -2.600000
v -1.847608 1.400000 -2.600000
v -1.927218 0.600000 -2.200000
v -2.037462 0.600000 -2.600000
v -1.852373 0.200000 -2.200000
v -1.967940 0.200000 -2.600000
v -1.800000 0.088456 -2.200000
v -1.800000 -0.112962 -2.600000
v -1.800000 -0.088166 -3.000000
v -1.935622 0.200000 -3.000000
v -1.803069 0.200000 -3.400000
v -1.862264 0.600000 -3.400000
v -2.007428 0.600000 -3.000000
v -1.832921 1.000000 -3.400000
v -1.973780 1.000000 -3.000000
v -1.800000 1.149476 -3.400000
v -1.800000 1.400000 -3.212018
v -1.851116 1.400000 -3.000000
v -1.800000 0.200000 -2.110167
v -1.586835 -0.200000 -2.200000
v -1.730134 -0.200000 -2.600000
v -1.400000 -0.398415 -2.200000
v -1.400000 -0.495951 -2.600000
v -1.400000 -0.541683 -3.000000
v -1.726954 -0.200000 -3.000000
v -1.269424 -0.600000 -2.600000
v -1.400000 -0.200000 -1.898582
v -1.209943 -0.600000 -2.200000
v -1.000000 -0.826920 -2.200000
v -1.000000 -0.808844 -2.600000
v -1.000000 -0.788081 -1.800000
v -1.111522 -0.600000 -1.800000
v -1.000000 -0.712438 -1.400000
v -1.066074 -0.600000 -1.400000
v -1.349398 -0.200000 -1.800000
v -1.271779 -0.200000 -1.400000
v -1.400000 0.176016 -1.400000
v -1.400000 -0.105946 -1.800000
v -1.400000 -0.200000 -1.068831
v -1.406320 0.200000 -1.400000
v -1.580816 0.200000 -1.000000
v -1.445954 -0.200000 -1.000000
v -1.400000 -0.280780 -1.000000
v -1.400000 -0.563552 -0.600000
v -1.653658 -0.200000 -0.600000
v -1.697749 -0.200000 -0.200000
v -1.439694 -0.600000 -0.200000
v -1.400000 -0.600000 -0.499352
v -1.800000 0.161865 -0.200000
v -1.771688 0.200000 -0.600000
v -1.800000 0.200000 -0.439109
v -1.800000 0.498980 -0.200000
v -1.782014 0.600000 -0.200000
v -1.674611 0.600000 0.200000
v -1.707788 0.200000 0.200000
v -1.800000 0.200000 -0.154149
v -1.602810 1.000000 -0.200000
v -1.472558 1.000000 0.200000
v -1.400000 0.600000 0.597545
v -1.400000 1.000000 0.311260
v -1.400000 1.081840 0.200000
v -1.400000 0.592816 0.600000
v -1.458812 0.200000 0.600000
v -1.400000 -0.088148 0.600000
v -1.400000 -0.200000 0.547035
v -1.604701 -0.200000 0.200000
v -1.400000 -0.537752 0.200000
v -1.400000 0.200000 0.663384
v -1.000000 0.200000 0.971664
v -1.000000 -0.200000 0.905827
v -1.357300 -0.200000 0.600000
v -1.397715 0.600000 0.600000
v -1.000000 0.600000 0.899151
v -1.108104 1.000000 0.600000
v -1.000000 1.000000 0.670398
v -0.600000 1.000000 0.826801
v -0.600000 0.721213 1.000000
v -0.771125 0.600000 1.000000
v -0.600000 0.600000 1.052772
v -0.600000 0.200000 1.134245
v -0.944372 0.200000 1.000000
v -0.600000 -0.200000 1.091525
v -0.829694 -0.200000 1.000000
v -0.600000 -0.440404 1.000000
v -1.000000 -0.600000 0.664256
v -0.600000 -0.600000 0.905334
v -0.200000 1.000000 0.851864
v -1.069967 -0.600000 0.600000
v -1.000000 -0.663211 0.600000
v -1.000000 -0.895661 0.200000
v -1.348635 -0.600000 0.200000
v -1.400000 -0.642121 -0.200000
v -1.400000 -0.600000 0.047160
v -1.000000 -0.954816 -0.200000
v -1.000000 -0.896945 -0.600000
v -1.366267 -0.600000 -0.600000
v -1.000000 -0.801029 -1.000000
v -1.182889 -0.600000 -1.000000
v -0.827218 -1.000000 -0.600000
v -0.772434 -1.000000 -1.000000
v -0.600000 -1.106314 -0.600000
v -0.600000 -1.121739 -1.000000
v -0.600000 -1.257390 -1.400000
v -0.816314 -1.000000 -1.400000
v -0.600000 -1.350476 -1.800000
v -0.876022 -1.000000 -1.800000
v -0.600000 -1.123644 -0.200000
v -0.912032 -1.000000 -0.200000
v -0.600000 -1.084226 0.200000
v -0.810832 -1.000000 0.200000
v -0.600000 -1.000000 0.430194
v -0.600000 -0.902335 0.600000
v -1.805972 0.200000 -0.200000
v -0.841437 -1.000000 -2.200000
v -0.745864 -1.000000 -2.600000
v -0.600000 -1.254973 -2.200000
v -1.800000 0.600000 -1.993119
v -1.630188 0.600000 -1.800000
v -1.548709 0.200000 -1.800000
v -1.800000 1.000000 -2.083096
v -1.400000 1.400000 -1.860623
v -1.400000 1.800000 -2.167310
v -1.400000 1.832144 -2.200000
v -1.042575 2.200000 -2.200000
v -1.000000 2.200000 -2.161769
v -1.000000 1.800000 -1.849689
v -1.314976 2.200000 -2.600000
v -1.000000 2.240574 -2.200000
v -1.000000 2.535114 -2.600000
v -1.390118 2.200000 -3.000000
v -1.051494 2.600000 -3.000000
v -1.000000 2.600000 -2.767364
v -1.000000 2.643868 -3.000000
v -1.000000 2.600000 -3.382548
v -1.327906 2.200000 -3.400000
v -1.320819 1.800000 -3.800000
v -1.122791 2.200000 -3.800000
v -1.000000 2.595209 -3.400000
v -1.000000 2.359932 -3.800000
v -0.691123 2.600000 -3.800000
v -0.994166 2.600000 -3.400000
v -1.000000 1.800000 -4.162739
v -1.000000 2.200000 -3.940513
v -1.300027 1.000000 -4.200000
v -1.160594 1.400000 -4.200000
v -1.396331 0.600000 -4.200000
v -1.400000 0.577455 -4.200000
v -1.400000 0.600000 -4.538996
v -1.448826 0.200000 -4.200000
v -1.423620 0.600000 -4.600000
v -1.400000 0.646668 -4.600000
v -1.000000 -1.069364 -3.800000
v -1.000000 -1.109144 -4.200000
v 0.600000 -1.491173 -2.200000
v 0.600000 -1.400000 -2.389184
v 0.772565 -1.400000 -2.200000
v 0.600000 -1.570025 -1.800000
v 0.898897 -1.400000 -1.800000
v 0.600000 -1.495895 -1.400000
v 0.780934 -1.400000 -1.400000
v 0.600000 -1.400000 -1.209876
v -0.416234 -1.400000 -2.200000
v -0.540171 -1.400000 -1.800000
v -0.422618 -1.400000 -1.400000
v 0.600000 -1.264080 -1.000000
v 0.536120 -1.000000 0.200000
v 0.598088 -1.000000 -0.200000
v 0.537784 -0.200000 1.000000
v 0.551870 0.200000 1.000000
v 1.000000 -0.200000 0.530841
v 1.000000 0.200000 0.535657
v 1.063592 0.200000 -0.600000
v 1.104214 0.200000 -1.000000
v 1.133599 -0.200000 -1.000000
v 1.197605 0.200000 -1.400000
v 1.247791 -0.200000 -1.400000
v 1.274272 -0.600000 -1.400000
v 1.315637 -0.200000 -1.800000
v 1.343336 -0.600000 -1.800000
v 1.149356 -1.000000 -1.400000
v 1.226408 -1.000000 -1.800000
v 1.000000 -1.212174 -1.400000
v 1.000000 -1.311312 -1.800000
v 0.200000 1.800000 -1.290557
v 0.600000 1.800000 -1.203837
v 0.795864 1.800000 -1.400000
v 1.000000 1.676895 -1.400000
v 1.000000 1.514364 -1.000000
v 0.600000 1.863281 -1.400000
v 1.231343 1.400000 -1.400000
v 1.098246 1.400000 -1.000000
v -0.200000 1.477689 -1.000000
v 0.072830 1.800000 -1.400000
v 0.200000 1.849410 -1.400000
v -1.400000 1.223473 -0.200000
v -1.123426 1.400000 -0.200000
v -0.358111 1.400000 -1.000000
v -0.600000 1.312505 -1.000000
v -1.547856 1.000000 -1.800000
v 0.200000 2.061218 -1.800000
v 0.600000 1.952925 -1.800000
v 0.200000 2.200000 -1.909270
v 0.600000 2.200000 -2.117345
v 0.200000 2.567966 -2.200000
v -0.884780 1.800000 -1.800000
v -0.920332 2.600000 -2.600000
v 0.088650 2.600000 -2.200000
v 0.200000 2.811823 -2.600000
v 0.200000 2.600000 -2.237895
v 0.200000 2.897863 -3.000000
v 0.200000 2.682324 -3.800000
v 0.200000 2.859735 -3.400000
v 0.200000 2.600000 -3.911282
v 0.394846 2.600000 -3.800000
v 0.200000 2.358221 -4.200000
v 0.574026 2.200000 -4.200000
v 0.200000 2.200000 -4.454516
v -0.200000 2.084294 -4.600000
v -0.342098 1.800000 -5.000000
v -0.200000 1.873371 -5.000000
v 0.200000 1.962410 -5.000000
v 0.200000 2.130839 -4.600000
v -0.200000 1.800000 -5.139067
v 0.200000 1.800000 -5.339722
v 0.200000 1.763895 -5.400000
v -1.000000 1.336659 -4.600000
v -0.600000 0.600000 -6.367414
v -0.600000 0.837451 -6.200000
v -1.413633 0.200000 -6.200000
v -1.400000 -0.200000 -6.084545
v 0.600000 -0.461642 -6.599999
v 0.600000 -0.200000 -6.633838
v 0.600000 -0.600000 -6.554811
v 0.678865 -0.200000 -6.600000
v 0.600000 0.039026 -6.600000
v 1.000000 -0.685719 -6.200000
v -0.200000 -1.400000 -3.567577
v 0.798544 -1.000000 -3.000000
v 0.932565 -1.000000 -2.600000
v 1.201234 0.200000 -1.800000
v 1.217271 1.800000 -3.000000
v 1.383259 1.400000 -3.000000
v 1.000000 2.200000 -2.679209
v 1.064887 2.200000 -3.000000
v 1.000000 2.312444 -3.000000
v 1.022725 2.200000 -3.400000
v 1.464863 1.400000 -4.600000
v -1.203856 1.000000 -4.600000
v 0.600000 0.200000 -6.547124
v 0.404261 0.200000 -6.600000
v -1.715520 0.200000 -5.800000
v -1.605109 -0.200000 -5.800000
v -1.624579 0.600000 -5.800000
v 1.179512 1.400000 -1.800000
vn 0.2731 0.7699 -0.5768
vn 0.5408 0.6664 -0.5134
vn 0.5764 0.7493 -0.3261
vn 0.4671 0.8233 -0.3225
vn 0.2789 0.8536 -0.4399
vn 0.2796 0.8998 -0.3349
vn 0.3516 0.8866 -0.3006
vn 0.5514 0.8046 -0.2203
vn 0.5483 0.8085 -0.2139
vn 0.4491 0.8278 -0.3362
vn 0.6073 0.7621 -0.2244
vn 0.7133 0.6548 -0.2499
vn 0.6683 0.6587 -0.3456
vn 0.4796 0.7608 -0.4372
vn 0.7694 0.5623 -0.3030
vn 0.5634 0.6805 -0.4685
vn 0.7919 0.5726 -0.2123
vn 0.6775 0.6999 -0.2261
vn 0.5544 0.7382 -0.3843
vn 0.5002 0.8403 -0.2089
vn 0.5101 0.8583 0.0559
vn 0.6959 0.7155 0.0612
vn 0.4917 0.8118 0.3150
vn 0.6516 0.6867 0.3224
vn 0.5280 0.7055 0.4727
vn 0.5259 0.5956 0.6072
vn 0.7667 0.5125 0.3867
vn 0.7031 0.4950 0.5105
vn 0.8549 0.3635 0.3702
vn 0.8612 0.2918 0.4161
vn 0.7972 0.5101 0.3229
vn 0.9093 0.3973 0.1235
vn 0.7821 0.6220 -0.0368
vn 0.5922 0.8031 0.0664
vn 0.9069 0.2468 0.3415
vn 0.9109 0.1762 0.3730
vn 0.9696 0.2443 -0.0128
vn 0.9983 0.0341 -0.0478
vn 0.8748 0.0898 0.4761
vn 0.9999 0.0157 -0.0036
vn 0.8330 0.0586 0.5502
vn 0.9894 0.1443 0.0141
vn 0.8743 0.0429 0.4835
vn 0.9902 0.1080 -0.0888
vn 0.9575 -0.1170 0.2636
vn 0.9612 -0.1691 -0.2179
vn 0.9206 -0.3901 -0.0188
vn 0.8152 -0.5307 -0.2321
vn 0.7535 -0.5037 -0.4226
vn 0.8579 -0.4298 -0.2815
vn 0.6982 -0.6494 -0.3013
vn 0.7616 -0.5489 0.3445
vn 0.6991 -0.7007 0.1424
vn 0.6595 -0.5910 0.4645
vn 0.6161 -0.7156 0.3292
vn 0.5491 -0.7784 0.3041
vn 0.7513 -0.4593 0.4739
vn 0.6434 -0.7575 0.1105
vn 0.5761 -0.8066 0.1322
vn 0.5163 -0.7999 0.3059
vn 0.5104 -0.8461 0.1534
vn 0.3946 -0.8875 0.2378
vn 0.5015 -0.8199 0.2759
vn 0.4124 -0.8909 0.1904
vn 0.5468 -0.8343 -0.0701
vn 0.4387 -0.8976 -0.0437
vn 0.1525 -0.9515 0.2672
vn 0.3114 -0.9295 0.1977
vn 0.1501 -0.9273 0.3430
vn 0.1372 -0.9739 0.1807
vn 0.3242 -0.9453 -0.0353
vn 0.1343 -0.9900 -0.0441
vn -0.1169 -0.9764 0.1816
vn -0.1247 -0.9907 -0.0546
vn -0.3243 -0.9434 -0.0698
vn -0.3141 -0.9257 0.2109
vn -0.4687 -0.8579 0.2105
vn -0.4729 -0.8781 -0.0735
vn -0.2824 -0.9401 -0.1910
vn -0.4664 -0.8576 -0.2168
vn -0.1684 -0.9714 -0.1673
vn -0.2437 -0.9576 -0.1537
vn -0.4874 -0.8533 -0.1850
vn -0.1278 -0.9760 -0.1764
vn 0.1041 -0.9845 -0.1412
vn 0.1131 -0.9844 -0.1345
vn 0.2767 -0.9520 -0.1308
vn 0.0727 -0.9926 -0.0974
vn 0.4285 -0.8975 -0.1041
vn 0.3936 -0.9184 -0.0406
vn 0.3715 -0.9233 -0.0977
vn 0.0259 -0.9899 -0.1391
vn 0.5939 -0.7980 -0.1022
vn 0.6298 -0.7763 -0.0270
vn -0.2921 -0.9403 -0.1747
vn -0.4731 -0.8613 -0.1853
vn -0.3175 -0.8938 -0.3168
vn -0.4313 -0.8386 -0.3327
vn -0.4401 -0.8623 -0.2503
vn -0.4668 -0.8060 -0.3640
vn -0.3739 -0.8148 -0.4431
vn -0.0091 -0.9531 -0.3026
vn -0.0282 -0.8620 -0.5061
vn -0.2791 -0.7424 -0.6091
vn -0.3693 -0.6908 -0.6217
vn -0.0444 -0.6896 -0.7229
vn 0.3000 -0.8248 -0.4793
vn 0.3100 -0.6664 -0.6781
vn 0.5071 -0.6805 -0.5289
vn 0.3404 -0.9009 -0.2693
vn 0.5933 -0.7551 -0.2789
vn 0.6281 -0.7758 -0.0592
vn 0.7005 -0.7025 -0.1257
vn 0.7403 -0.6137 -0.2745
vn 0.7770 -0.6263 -0.0634
vn 0.8986 -0.4216 -0.1214
vn 0.8908 -0.3727 -0.2600
vn 0.9607 -0.2065 -0.1853
vn 0.9413 -0.0939 -0.3241
vn 0.8513 -0.0329 -0.5236
vn 0.8156 -0.3244 -0.4791
vn 0.6487 -0.3405 -0.6806
vn 0.6788 -0.0091 -0.7342
vn 0.8049 0.2013 -0.5583
vn 0.6486 0.2639 -0.7139
vn 0.6717 0.3358 -0.6603
vn 0.9023 0.1236 -0.4130
vn 0.8144 0.3202 -0.4840
vn 0.6389 0.4235 -0.6422
vn 0.9416 0.0424 -0.3341
vn 0.8875 0.2299 -0.3994
vn 0.6542 0.4193 -0.6294
vn 0.8339 0.2719 -0.4803
vn 0.7726 0.3342 -0.5398
vn 0.6454 0.4181 -0.6392
vn 0.8050 0.3188 -0.5004
vn 0.7829 0.4700 -0.4076
vn 0.7174 0.5872 -0.3749
vn 0.6908 0.5250 -0.4972
vn 0.7500 0.5951 -0.2886
vn 0.8347 0.3330 -0.4387
vn 0.8983 0.1227 -0.4218
vn 0.8787 0.1007 -0.4667
vn 0.8943 -0.1011 -0.4358
vn 0.9279 -0.0195 -0.3723
vn 0.9560 -0.1380 -0.2588
vn 0.9439 -0.2559 -0.2088
vn 0.8873 -0.3110 -0.3405
vn 0.8770 -0.4201 -0.2330
vn 0.8746 -0.2529 -0.4136
vn 0.8691 -0.1217 -0.4795
vn 0.8266 -0.4078 -0.3879
vn 0.9026 -0.1146 -0.4149
vn 0.9150 0.1106 -0.3879
vn 0.8778 0.0831 -0.4717
vn 0.9634 -0.1315 -0.2338
vn 0.9634 0.1610 -0.2141
vn 0.8940 0.2527 -0.3701
vn 0.8965 0.4131 -0.1604
vn 0.8668 0.4297 -0.2529
vn 0.8213 0.5534 -0.1386
vn 0.8243 0.5640 0.0497
vn 0.8956 0.4416 0.0542
vn 0.8702 0.4512 0.1976
vn 0.8634 0.3568 0.3567
vn 0.9814 0.1852 0.0516
vn 0.9191 0.1764 0.3523
vn 0.9238 -0.1348 0.3583
vn 0.9893 -0.1361 0.0515
vn 0.8608 -0.3816 0.3369
vn 0.9186 -0.3909 0.0584
vn 0.7817 -0.5102 0.3587
vn 0.8306 -0.5515 0.0773
vn 0.7710 -0.3794 0.5114
vn 0.7544 -0.6503 0.0895
vn 0.6957 -0.6230 0.3576
vn 0.8275 -0.5179 -0.2167
vn 0.7553 -0.6260 -0.1939
vn 0.6750 -0.7210 -0.1569
vn 0.7519 -0.5809 -0.3117
vn 0.7207 -0.6448 -0.2546
vn 0.7964 -0.5443 -0.2637
vn 0.8433 -0.5170 -0.1467
vn 0.7470 -0.6626 -0.0543
vn 0.6644 -0.7360 -0.1299
vn 0.6169 -0.7780 -0.1194
vn 0.8460 -0.3881 -0.3655
vn 0.9034 -0.3708 -0.2155
vn 0.8086 -0.1434 0.5707
vn 0.8248 0.1541 0.5441
vn 0.7283 -0.1379 0.6712
vn 0.7497 0.1164 0.6515
vn 0.7237 -0.0724 0.6863
vn 0.6871 0.0667 0.7235
vn 0.7329 0.1795 0.6562
vn 0.7687 0.2797 0.5752
vn 0.8114 0.3624 0.4587
vn 0.7582 -0.2822 0.5878
vn 0.7074 -0.3635 0.6062
vn 0.8309 0.4492 0.3282
vn 0.7968 0.5698 0.2012
vn 0.7745 0.6324 0.0141
vn 0.8071 0.5803 0.1083
vn 0.7390 0.6731 -0.0290
vn 0.6917 0.7115 -0.1236
vn 0.7657 0.6312 -0.1239
vn 0.7387 0.6629 -0.1218
vn 0.6541 0.7398 -0.1579
vn 0.6173 0.7624 -0.1941
vn 0.6808 0.7016 -0.2105
vn 0.8491 0.4469 0.2816
vn 0.8305 0.5554 -0.0416
vn 0.8540 0.4015 -0.3310
vn 0.4888 0.5217 -0.6992
vn 0.2837 0.5946 -0.7523
vn 0.5599 0.5441 -0.6249
vn 0.2649 0.6409 -0.7204
vn 0.2951 0.5757 -0.7626
vn -0.0168 0.6613 -0.7499
vn -0.0481 0.6965 -0.7160
vn 0.3008 0.5598 -0.7721
vn 0.5004 0.4635 -0.7313
vn 0.2857 0.5116 -0.8103
vn 0.0578 0.6003 -0.7977
vn 0.0550 0.5238 -0.8501
vn -0.0318 0.6203 -0.7837
vn -0.0393 0.4900 -0.8708
vn -0.1300 0.2751 -0.9526
vn -0.1005 0.3311 -0.9382
vn 0.0081 0.4643 -0.8856
vn -0.2207 0.1429 -0.9648
vn -0.2327 -0.0061 -0.9725
vn -0.0080 -0.0044 -1.0000
vn -0.0209 0.3009 -0.9534
vn -0.3209 -0.1984 -0.9261
vn -0.2122 -0.4056 -0.8891
vn -0.0179 -0.2868 -0.9578
vn -0.0281 -0.5345 -0.8447
vn 0.1626 -0.4969 -0.8525
vn -0.3437 -0.4377 -0.8309
vn -0.3903 -0.4843 -0.7830
vn -0.3325 -0.0690 -0.9406
vn -0.2944 -0.2195 -0.9301
vn -0.4660 -0.5370 -0.7032
vn -0.4303 -0.6045 -0.6704
vn -0.3797 -0.2998 -0.8752
vn -0.1876 0.1430 -0.9718
vn -0.3396 0.0660 -0.9383
vn -0.6365 -0.1804 -0.7499
vn -0.5280 -0.3930 -0.7529
vn -0.5192 0.0257 -0.8543
vn -0.6128 0.1846 -0.7683
vn -0.2583 0.3930 -0.8825
vn -0.4224 0.4405 -0.7922
vn -0.2612 0.6276 -0.7334
vn -0.6124 0.6970 -0.3731
vn -0.6192 0.4399 -0.6505
vn -0.2818 0.7455 -0.6040
vn -0.4597 0.7893 -0.4070
vn -0.7048 0.7093 -0.0141
vn -0.5867 0.8070 -0.0678
vn -0.4766 0.8568 -0.1970
vn -0.3293 0.8444 -0.4226
vn -0.6468 0.7585 -0.0795
vn -0.7243 0.6815 0.1047
vn -0.4971 0.8012 -0.3330
vn -0.6105 0.7610 -0.2194
vn -0.5946 0.7063 -0.3842
vn -0.4857 0.7506 -0.4479
vn -0.3563 0.7949 -0.4911
vn -0.2446 0.7452 -0.6203
vn -0.3356 0.7635 -0.5518
vn -0.2177 0.8119 -0.5417
vn -0.1583 0.7370 -0.6571
vn -0.1264 0.7319 -0.6696
vn -0.0701 0.6806 -0.7293
vn 0.0319 0.6317 -0.7745
vn -0.5987 0.6797 -0.4237
vn -0.6672 0.5945 -0.4488
vn -0.7348 0.5857 -0.3421
vn -0.7385 0.3812 -0.5562
vn -0.8008 0.4179 -0.4292
vn -0.6557 0.4370 -0.6157
vn -0.5244 0.6945 -0.4926
vn -0.4425 0.6476 -0.6203
vn -0.5402 0.5488 -0.6380
vn -0.3604 0.6465 -0.6724
vn -0.1830 0.7911 -0.5837
vn -0.1093 0.7440 -0.6591
vn -0.0595 0.7548 -0.6532
vn -0.3139 0.7051 -0.6358
vn -0.3016 0.8250 -0.4780
vn -0.0386 0.8666 -0.4975
vn -0.3338 0.9120 -0.2383
vn -0.0392 0.9681 -0.2475
vn -0.3378 0.9397 0.0542
vn -0.0389 0.9977 0.0563
vn -0.3214 0.8855 0.3356
vn -0.0337 0.9353 0.3522
vn -0.0244 0.8189 0.5734
vn -0.1790 0.7394 0.6490
vn -0.3520 0.7691 0.5335
vn -0.3288 0.6598 0.6756
vn -0.0261 0.6764 0.7361
vn -0.0359 0.5585 0.8287
vn -0.2670 0.5594 0.7847
vn -0.2442 0.4946 0.8341
vn -0.1316 0.5692 0.8116
vn -0.3989 0.5478 0.7354
vn -0.2550 0.4857 0.8361
vn -0.3404 0.5980 0.7256
vn -0.4634 0.7348 0.4953
vn -0.5059 0.7717 0.3855
vn -0.3823 0.8599 0.3381
vn -0.4960 0.8067 0.3212
vn -0.3619 0.5250 0.7704
vn -0.6100 0.4146 0.6753
vn -0.4839 0.4814 0.7308
vn -0.7368 0.6372 0.2259
vn -0.6255 0.4319 0.6497
vn -0.3976 0.4755 0.7847
vn -0.9095 0.3974 0.1221
vn -0.7949 0.4692 -0.3847
vn -0.6392 0.6736 -0.3711
vn -0.8933 0.2311 -0.3855
vn -0.9864 0.1519 0.0626
vn -0.6767 0.5904 -0.4399
vn -0.8121 0.5320 -0.2397
vn -0.9339 0.2422 -0.2629
vn -0.6135 0.7508 -0.2447
vn -0.4061 0.8672 -0.2882
vn -0.3103 0.8711 -0.3806
vn -0.4433 0.8650 -0.2352
vn -0.2709 0.9385 -0.2140
vn -0.2625 0.8792 -0.3976
vn -0.1136 0.9758 -0.1870
vn -0.2855 0.9575 0.0421
vn -0.0636 0.9972 0.0399
vn -0.0695 0.9562 0.2843
vn -0.2338 0.8955 0.3787
vn -0.3664 0.8976 0.2450
vn -0.4002 0.8171 0.4150
vn -0.3697 0.7109 0.5983
vn -0.1103 0.8783 0.4652
vn -0.1478 0.7866 0.5995
vn 0.1419 0.8896 0.4342
vn 0.1158 0.8092 0.5760
vn 0.1433 0.9550 0.2595
vn 0.2867 0.9132 0.2898
vn 0.1451 0.9872 0.0667
vn 0.3144 0.9418 0.1189
vn 0.4019 0.8734 0.2751
vn 0.3911 0.9018 0.1837
vn 0.1964 0.9685 0.1529
vn 0.0133 0.9983 0.0561
vn 0.0456 0.9540 0.2962
vn 0.1876 0.9198 0.3447
vn -0.1621 0.8885 0.4292
vn 0.1837 0.8430 0.5056
vn 0.3048 0.6790 0.6679
vn 0.4671 0.6809 0.5641
vn 0.5768 0.4964 0.6487
vn 0.7605 0.2556 0.5969
vn 0.7583 0.4266 0.4929
vn 0.9099 0.2064 0.3597
vn 0.9095 0.1012 0.4033
vn 0.9492 -0.0777 0.3049
vn 0.9707 0.0971 0.2199
vn 0.9962 0.0641 0.0597
vn 0.9882 -0.1363 0.0705
vn 0.9655 0.0416 -0.2571
vn 0.9703 -0.0719 -0.2309
vn 0.9593 0.2598 0.1109
vn 0.6023 0.7554 0.2582
vn 0.7705 0.6025 0.2080
vn 0.5790 0.7829 0.2277
vn 0.7286 0.6514 0.2118
vn 0.8427 0.4948 0.2120
vn 0.8829 0.4651 0.0646
vn 0.9099 0.3630 0.2009
vn 0.9413 0.3376 0.0019
vn 0.9856 0.1600 -0.0551
vn 0.9734 0.1485 0.1743
vn 0.9710 -0.1647 0.1733
vn 0.9894 -0.1436 -0.0224
vn 0.8964 -0.3933 0.2045
vn 0.9230 -0.3842 0.0224
vn 0.9963 -0.0770 0.0369
vn 0.9378 -0.3204 0.1335
vn 0.6831 -0.7274 0.0655
vn 0.8415 -0.5005 0.2034
vn 0.9349 -0.2042 0.2903
vn 0.8128 -0.4383 0.3838
vn 0.6679 -0.6114 0.4244
vn 0.6771 -0.6844 0.2705
vn 0.7047 -0.5452 0.4540
vn 0.6308 -0.7710 0.0873
vn 0.8104 -0.5842 0.0455
vn 0.5928 -0.7851 0.1795
vn 0.4661 -0.8460 0.2587
vn 0.5784 -0.7873 0.2134
vn 0.8001 -0.5639 0.2049
vn 0.5041 -0.7069 0.4962
vn 0.7113 -0.4972 0.4968
vn 0.5054 -0.4976 0.7050
vn 0.5824 -0.1883 0.7908
vn 0.7960 -0.1922 0.5739
vn 0.6006 0.1463 0.7861
vn 0.8074 0.1579 0.5685
vn 0.5531 0.4347 0.7107
vn 0.7418 0.4427 0.5037
vn 0.5965 0.5995 0.5336
vn 0.2832 0.5225 0.8043
vn 0.3199 0.6429 0.6960
vn 0.4723 0.6933 0.5443
vn 0.3985 0.4259 0.8123
vn 0.6114 0.6955 0.3775
vn 0.3328 0.7894 0.5159
vn 0.2424 0.3529 0.9037
vn 0.0543 0.5144 0.8558
vn 0.0196 0.3362 0.9416
vn -0.0120 0.0850 0.9963
vn 0.2429 0.1102 0.9638
vn -0.0387 -0.2180 0.9752
vn 0.2204 -0.1949 0.9557
vn -0.0598 -0.4460 0.8930
vn 0.2256 -0.4201 0.8790
vn 0.2106 -0.5868 0.7819
vn -0.0636 -0.6037 0.7946
vn -0.0652 -0.7986 0.5983
vn 0.2229 -0.7870 0.5753
vn 0.2436 -0.8725 0.4236
vn -0.0634 -0.8963 0.4389
vn -0.0513 -0.9732 0.2243
vn 0.2122 -0.9538 0.2127
vn 0.2126 -0.9721 0.0994
vn -0.0718 -0.9950 0.0689
vn 0.1506 -0.9602 0.2352
vn -0.1551 -0.9784 0.1365
vn 0.0730 -0.9016 0.4264
vn -0.2466 -0.9107 0.3313
vn 0.0330 -0.8785 0.4767
vn -0.2741 -0.8610 0.4284
vn -0.2976 -0.9078 0.2955
vn 0.0190 -0.9498 0.3122
vn 0.0187 -0.9998 -0.0053
vn -0.3127 -0.9499 -0.0047
vn 0.0216 -0.9546 -0.2970
vn -0.2988 -0.9129 -0.2781
vn 0.0397 -0.9036 -0.4265
vn -0.3257 -0.8551 -0.4034
vn -0.3102 -0.9019 -0.3006
vn 0.0670 -0.9279 -0.3668
vn 0.1189 -0.9904 -0.0711
vn -0.2543 -0.9671 0.0012
vn 0.4362 -0.8168 -0.3776
vn 0.4482 -0.8917 -0.0630
vn -0.5441 -0.8185 -0.1844
vn -0.4789 -0.8752 0.0679
vn -0.1780 -0.9364 0.3023
vn -0.4364 -0.8511 0.2919
vn -0.5316 -0.8078 0.2546
vn -0.5411 -0.8352 0.0984
vn -0.5792 -0.8098 0.0936
vn -0.6290 -0.7543 0.1883
vn -0.7088 -0.7051 0.0187
vn -0.6271 -0.7756 0.0722
vn -0.6656 -0.6985 0.2627
vn -0.7802 -0.6091 0.1425
vn -0.8483 -0.5296 -0.0007
vn -0.7886 -0.6118 -0.0622
vn -0.8950 -0.4319 -0.1120
vn -0.8892 -0.4554 -0.0440
vn -0.9407 -0.3377 -0.0332
vn -0.8321 -0.5546 -0.0050
vn -0.8968 -0.4259 0.1196
vn -0.7157 -0.6790 -0.1631
vn -0.7925 -0.6068 -0.0616
vn -0.7049 -0.6663 -0.2433
vn -0.6194 -0.7815 -0.0746
vn -0.7244 -0.6886 0.0320
vn -0.5536 -0.8209 -0.1399
vn -0.6386 -0.7620 -0.1072
vn -0.8080 -0.5789 0.1097
vn -0.7384 -0.6703 -0.0743
vn -0.5806 -0.7252 -0.3702
vn -0.6737 -0.6403 -0.3690
vn -0.9120 -0.4096 -0.0236
vn -0.9149 -0.3495 0.2021
vn -0.9999 -0.0010 0.0115
vn -0.9607 0.0321 0.2757
vn -0.9080 0.4186 0.0173
vn -0.8754 0.4023 0.2680
vn -0.7776 0.5934 0.2077
vn -0.9430 -0.2529 0.2165
vn -0.9608 0.0604 0.2706
vn -0.5009 -0.7916 -0.3499
vn -0.4749 -0.7003 -0.5330
vn -0.4310 -0.6767 -0.5969
vn -0.5604 -0.8146 -0.1496
vn -0.5160 -0.8383 -0.1763
vn -0.6020 -0.7674 -0.2205
vn -0.9744 -0.2194 -0.0493
vn -0.9152 -0.3177 -0.2478
vn -0.8625 -0.4632 -0.2037
vn -0.8837 -0.3436 -0.3177
vn -0.9109 -0.1201 -0.3948
vn -0.8851 -0.1923 -0.4239
vn -0.8613 0.0328 -0.5070
vn -0.8815 -0.0104 -0.4721
vn -0.8216 0.1749 -0.5426
vn -0.8564 0.1459 -0.4953
vn -0.8504 0.1104 -0.5144
vn -0.7988 0.2046 -0.5658
vn -0.7575 0.2696 -0.5945
vn -0.7903 0.2593 -0.5551
vn -0.7702 0.3132 -0.5556
vn -0.7975 0.3726 -0.4746
vn -0.8408 0.4274 -0.3323
vn -0.8590 0.3099 -0.4074
vn -0.8240 0.4849 -0.2932
vn -0.8257 0.5639 -0.0139
vn -0.8600 0.5066 -0.0609
vn -0.7535 0.6019 0.2644
vn -0.8178 0.5336 0.2156
vn -0.8601 0.4815 0.1686
vn -0.8916 0.4410 -0.1032
vn -0.7207 0.5153 0.4637
vn -0.7575 0.4322 0.4893
vn -0.8417 0.4485 0.3005
vn -0.8219 0.3457 0.4527
vn -0.8951 0.2177 0.3892
vn -0.9686 0.2176 0.1204
vn -0.9194 0.3728 0.1255
vn -0.9187 -0.0197 0.3944
vn -0.9942 -0.0291 0.1035
vn -0.8804 -0.2911 0.3743
vn -0.9450 -0.3128 0.0956
vn -0.7976 -0.4648 0.3843
vn -0.8390 -0.5317 0.1159
vn -0.8739 -0.4643 -0.1437
vn -0.9364 -0.2979 -0.1856
vn -0.8984 -0.2430 -0.3659
vn -0.9176 -0.0356 -0.3960
vn -0.9792 -0.0378 -0.1993
vn -0.9068 0.1340 -0.3998
vn -0.9671 0.1848 -0.1750
vn -0.8802 0.2327 -0.4136
vn -0.9000 0.3312 -0.2833
vn -0.9282 0.3506 -0.1247
vn -0.7875 -0.2711 0.5534
vn -0.7132 -0.6120 0.3418
vn -0.7497 -0.6488 0.1302
vn -0.7101 -0.6572 0.2525
vn -0.6711 -0.7322 0.1158
vn -0.6910 -0.7226 0.0189
vn -0.8037 -0.5900 -0.0774
vn -0.6416 -0.7628 0.0808
vn -0.7580 -0.5118 0.4044
vn -0.7146 -0.6894 0.1185
vn -0.7364 -0.6765 0.0123
vn -0.6221 -0.7829 -0.0020
vn -0.8250 -0.5588 0.0846
vn -0.8249 -0.5427 0.1583
vn -0.8178 -0.5755 -0.0051
vn -0.8435 -0.5335 -0.0619
vn -0.8533 -0.4419 0.2769
vn -0.9049 -0.4181 -0.0802
vn -0.9295 -0.3645 -0.0566
vn -0.8333 -0.4160 0.3640
vn -0.8259 -0.3694 -0.4260
vn -0.9764 -0.2156 -0.0142
vn -0.9036 -0.1238 -0.4101
vn -0.8044 -0.4033 -0.4362
vn -0.7960 -0.4770 -0.3727
vn -0.7834 -0.5603 -0.2689
vn -0.8753 -0.4085 -0.2590
vn -0.9126 -0.4060 0.0476
vn -0.7922 -0.6099 0.0186
vn -0.7159 -0.6831 -0.1443
vn -0.9700 -0.2335 0.0683
vn -0.9541 -0.1186 -0.2751
vn -0.9285 -0.3529 -0.1160
vn -0.9917 0.0935 0.0887
vn -0.9560 0.2780 0.0942
vn -0.8801 0.2504 0.4034
vn -0.9171 -0.0707 0.3924
vn -0.9733 -0.0980 0.2075
vn -0.8357 0.5425 0.0854
vn -0.7728 0.5162 0.3693
vn -0.7298 0.3187 0.6049
vn -0.6475 0.5412 0.5365
vn -0.6110 0.7018 0.3663
vn -0.7193 0.1465 0.6791
vn -0.7944 -0.0291 0.6067
vn -0.7409 -0.2018 0.6406
vn -0.7703 -0.3723 0.5177
vn -0.8646 -0.3651 0.3451
vn -0.7668 -0.5419 0.3440
vn -0.6720 -0.0141 0.7405
vn -0.5272 0.0060 0.8497
vn -0.5380 -0.2962 0.7892
vn -0.6786 -0.3704 0.6343
vn -0.6290 0.3098 0.7130
vn -0.4733 0.3060 0.8260
vn -0.5332 0.5580 0.6359
vn -0.3977 0.5471 0.7365
vn -0.1773 0.6102 0.7721
vn -0.1980 0.4702 0.8600
vn -0.3535 0.3223 0.8782
vn -0.2040 0.2996 0.9320
vn -0.2454 0.0501 0.9681
vn -0.4086 0.0227 0.9124
vn -0.2588 -0.2233 0.9398
vn -0.4230 -0.2708 0.8647
vn -0.3021 -0.4251 0.8532
vn -0.4978 -0.5364 0.6815
vn -0.3089 -0.5810 0.7530
vn 0.0782 0.6490 0.7567
vn -0.6144 -0.5631 0.5526
vn -0.4981 -0.6893 0.5261
vn -0.5321 -0.7974 0.2847
vn -0.6723 -0.6644 0.3265
vn -0.6715 -0.7409 0.0096
vn -0.7402 -0.6506 0.1699
vn -0.5503 -0.8349 0.0008
vn -0.5922 -0.7916 -0.1507
vn -0.6870 -0.6841 -0.2451
vn -0.7023 -0.6968 -0.1457
vn -0.7545 -0.5977 -0.2710
vn -0.4951 -0.8648 -0.0833
vn -0.6428 -0.7661 -0.0017
vn -0.3673 -0.9300 0.0147
vn -0.5167 -0.8416 0.1570
vn -0.6758 -0.7138 0.1837
vn -0.7721 -0.6289 0.0917
vn -0.6940 -0.7200 0.0027
vn -0.8011 -0.5977 0.0323
vn -0.2894 -0.9567 0.0317
vn -0.4402 -0.8979 0.0097
vn -0.2661 -0.9392 0.2169
vn -0.4236 -0.8680 0.2593
vn -0.3084 -0.8575 0.4118
vn -0.3115 -0.7600 0.5704
vn -0.9964 -0.0673 0.0519
vn -0.7255 -0.6802 -0.1047
vn -0.6124 -0.7843 -0.0988
vn -0.6379 -0.7375 -0.2218
vn -0.8031 -0.0132 0.5957
vn -0.8263 0.0152 0.5630
vn -0.8282 -0.2707 0.4908
vn -0.7796 0.2392 0.5789
vn -0.6085 0.4197 0.6735
vn -0.5850 0.5353 0.6092
vn -0.6460 0.5771 0.4996
vn -0.6027 0.5822 0.5457
vn -0.4691 0.5542 0.6876
vn -0.4431 0.5166 0.7326
vn -0.7112 0.6363 0.2989
vn -0.5321 0.6188 0.5779
vn -0.6375 0.6815 0.3594
vn -0.7888 0.6145 0.0155
vn -0.7123 0.7012 0.0310
vn -0.6417 0.7409 0.1983
vn -0.5632 0.8254 0.0380
vn -0.6372 0.7625 -0.1118
vn -0.7892 0.5580 -0.2564
vn -0.7506 0.3526 -0.5588
vn -0.7269 0.4708 -0.5000
vn -0.6703 0.6885 -0.2771
vn -0.6043 0.6127 -0.5093
vn -0.4698 0.7217 -0.5083
vn -0.5420 0.7942 -0.2748
vn -0.6644 0.3687 -0.6501
vn -0.5975 0.4687 -0.6506
vn -0.8655 0.3140 -0.3904
vn -0.7993 0.3249 -0.5055
vn -0.9380 0.2165 -0.2707
vn -0.9708 0.1205 -0.2072
vn -0.7602 0.6429 0.0937
vn -0.9943 0.0298 -0.1027
vn -0.8688 0.3995 0.2926
vn -0.8805 0.4371 0.1834
vn -0.6450 -0.7442 0.1736
vn -0.6572 -0.7505 -0.0699
vn 0.3284 -0.8994 -0.2885
vn 0.3699 -0.8206 -0.4356
vn 0.5378 -0.7870 -0.3025
vn 0.3402 -0.9404 -0.0052
vn 0.5847 -0.8113 -0.0058
vn 0.3247 -0.8979 0.2974
vn 0.5400 -0.7808 0.3142
vn 0.3597 -0.8023 0.4763
vn -0.5127 -0.8113 -0.2809
vn -0.5613 -0.8276 -0.0038
vn -0.5035 -0.8237 0.2607
vn 0.4249 -0.7899 0.4422
vn 0.4144 -0.8815 0.2264
vn 0.4419 -0.8916 0.0991
vn 0.4245 -0.1997 0.8832
vn 0.4466 0.1426 0.8833
vn 0.8853 -0.2079 0.4160
vn 0.9015 0.1673 0.3992
vn 0.9959 0.0800 0.0434
vn 0.9781 -0.0085 0.2078
vn 0.9765 0.0086 0.2154
vn 0.9912 -0.0054 0.1323
vn 0.9734 0.0922 0.2099
vn 0.9550 -0.1303 0.2665
vn 0.9870 0.1582 -0.0279
vn 0.9938 -0.1115 -0.0042
vn 0.8550 -0.4342 0.2836
vn 0.9006 -0.4345 -0.0050
vn 0.6951 -0.6476 0.3122
vn 0.7287 -0.6848 -0.0057
vn -0.2390 0.8899 0.3886
vn 0.1681 0.8983 0.4059
vn 0.4614 0.8544 0.2388
vn 0.6462 0.7456 0.1626
vn 0.5424 0.7096 0.4498
vn 0.1996 0.9375 0.2849
vn 0.8993 0.4296 0.0822
vn 0.7978 0.4316 0.4209
vn -0.3532 0.9210 0.1642
vn -0.3460 0.8052 0.4816
vn -0.0791 0.9065 0.4146
vn -0.6342 0.7689 0.0815
vn -0.4773 0.8762 0.0672
vn -0.4406 0.8894 -0.1217
vn -0.3219 0.9202 -0.2227
vn -0.7144 0.3016 0.6315
vn 0.1027 0.7789 0.6186
vn 0.4007 0.8367 0.3734
vn 0.1967 0.6253 0.7552
vn 0.5249 0.5685 0.6335
vn 0.2892 0.6704 0.6833
vn -0.2980 0.4971 0.8149
vn -0.5109 0.7792 0.3631
vn 0.1114 0.8160 0.5673
vn 0.2555 0.9021 0.3479
vn 0.2907 0.7897 0.5402
vn 0.2649 0.9626 0.0567
vn 0.2305 0.8439 -0.4844
vn 0.2563 0.9366 -0.2388
vn 0.2358 0.7500 -0.6179
vn 0.4030 0.7656 -0.5015
vn 0.2034 0.7811 -0.5903
vn 0.3210 0.8364 -0.4443
vn 0.1338 0.8576 -0.4967
vn -0.2558 0.8297 -0.4962
vn -0.4938 0.7351 -0.4645
vn -0.3133 0.8473 -0.4290
vn -0.0180 0.9139 -0.4056
vn 0.0554 0.9067 -0.4181
vn -0.3500 0.8194 -0.4539
vn -0.0703 0.8763 -0.4766
vn -0.0725 0.7972 -0.5993
vn -0.7973 0.5627 -0.2183
vn -0.1140 0.4532 -0.8841
vn -0.0949 0.6360 -0.7658
vn -0.7182 -0.0335 -0.6951
vn -0.6693 -0.4214 -0.6119
vn 0.3585 -0.1915 -0.9137
vn 0.2652 0.0034 -0.9642
vn 0.3893 -0.4275 -0.8159
vn 0.5045 0.0097 -0.8633
vn 0.3624 0.2087 -0.9083
vn 0.6616 -0.5347 -0.5258
vn -0.1382 -0.9247 0.3547
vn 0.6056 -0.7958 0.0011
vn 0.6694 -0.6670 -0.3271
vn 0.9871 0.1018 -0.1233
vn 0.9118 0.3647 0.1888
vn 0.8648 0.3505 0.3594
vn 0.8385 0.4944 0.2290
vn 0.8951 0.4406 0.0679
vn 0.8082 0.5863 0.0544
vn 0.8588 0.4905 -0.1480
vn 0.7666 0.5947 -0.2423
vn -0.8510 0.5251 -0.0126
vn 0.3644 0.3751 -0.8524
vn 0.1464 0.3562 -0.9229
vn -0.9268 -0.0126 -0.3753
vn -0.8398 -0.4071 -0.3592
vn -0.8463 0.4027 -0.3487
vn 0.9181 0.3536 -0.1791
s 1
f 4//4 3//3 2//2 1//1
f 5//5 4//4 1//1
f 4//4 5//5 6//6
f 8//8 4//4 6//6 7//7
f 9//9 8//8 7//7
f 11//11 9//9 7//7 10//10
f 13//13 12//12 11//11 10//10
f 14//14 13//13 10//10
f 13//13 15//15 12//12
f 17//17 15//15 13//13 16//16
f 19//19 18//18 17//17 16//16
f 18//18 19//19 20//20
f 22//22 18//18 20//20 21//21
f 24//24 22//22 21//21 23//23
f 25//25 24//24 23//23
f 27//27 24//24 25//25 26//26
f 28//28 27//27 26//26
f 28//28 31//31 30//30 29//29
f 27//27 28//28 29//29
f 30//30 31//31 32//32
f 32//32 31//31 34//34 33//33
f 36//36 35//35 30//30 32//32
f 37//37 36//36 32//32
f 39//39 36//36 37//37 38//38
f 41//41 39//39 38//38 40//40
f 43//43 41//41 40//40 42//42
f 45//45 43//43 42//42 44//44
f 47//47 45//45 44//44 46//46
f 46//46 50//50 49//49 48//48
f 47//47 46//46 48//48
f 49//49 50//50 51//51
f 53//53 52//52 47//47 48//48
f 55//55 54//54 52//52 53//53
f 56//56 55//55 53//53
f 52//52 54//54 57//57
f 59//59 58//58 55//55 56//56
f 60//60 59//59 56//56
f 59//59 60//60 61//61
f 61//61 60//60 63//63 62//62
f 64//64 61//61 62//62
f 66//66 65//65 61//61 64//64
f 68//68 64//64 62//62 67//67
f 69//69 68//68 67//67
f 68//68 69//69 70//70
f 72//72 71//71 68//68 70//70
f 74//74 72//72 70//70 73//73
f 76//76 75//75 74//74 73//73
f 78//78 75//75 76//76 77//77
f 80//80 79//79 75//75 78//78
f 82//82 81//81 79//79 80//80
f 83//83 82//82 80//80
f 79//79 81//81 84//84
f 81//81 86//86 85//85 84//84
f 86//86 87//87 85//85
f 89//89 87//87 86//86 88//88
f 90//90 89//89 88//88
f 92//92 91//91 90//90 88//88
f 71//71 87//87 89//89 66//66
f 90//90 94//94 93//93 89//89
f 96//96 95//95 82//82 83//83
f 98//98 97//97 95//95 96//96
f 99//99 98//98 96//96
f 98//98 99//99 100//100
f 98//98 101//101 97//97
f 104//104 103//103 102//102 97//97
f 101//101 104//104 97//97
f 104//104 101//101 105//105
f 104//104 106//106 103//103
f 106//106 108//108 107//107 103//103
f 108//108 109//109 107//107
f 107//107 109//109 111//111 110//110
f 111//111 113//113 112//112 91//91
f 110//110 111//111 91//91
f 113//113 111//111 114//114
f 116//116 115//115 113//113 114//114
f 117//117 116//116 114//114
f 117//117 119//119 118//118 116//116
f 121//121 120//120 119//119 117//117
f 123//123 120//120 121//121 122//122
f 125//125 124//124 120//120 123//123
f 124//124 125//125 126//126
f 128//128 127//127 124//124 126//126
f 129//129 128//128 126//126
f 127//127 128//128 131//131 130//130
f 133//133 131//131 128//128 132//132
f 135//135 134//134 133//133 132//132
f 134//134 136//136 133//133
f 134//134 139//139 138//138 137//137
f 136//136 134//134 137//137
f 138//138 140//140 137//137
f 141//141 136//136 137//137
f 141//141 143//143 142//142 133//133
f 136//136 141//141 133//133
f 145//145 142//142 143//143 144//144
f 144//144 148//148 147//147 146//146
f 145//145 144//144 146//146
f 147//147 148//148 149//149
f 130//130 145//145 146//146
f 148//148 144//144 151//151 150//150
f 152//152 148//148 150//150
f 151//151 153//153 150//150
f 155//155 154//154 153//153 151//151
f 153//153 154//154 157//157 156//156
f 159//159 157//157 154//154 158//158
f 160//160 159//159 158//158
f 159//159 160//160 161//161
f 163//163 159//159 161//161 162//162
f 164//164 163//163 162//162
f 166//166 163//163 164//164 165//165
f 167//167 166//166 165//165
f 169//169 166//166 167//167 168//168
f 171//171 169//169 168//168 170//170
f 173//173 171//171 170//170 172//172
f 170//170 174//174 172//172
f 176//176 175//175 173//173 172//172
f 175//175 178//178 177//177 173//173
f 179//179 178//178 175//175 58//58
f 181//181 180//180 178//178 179//179
f 182//182 180//180 181//181
f 184//184 183//183 182//182 181//181
f 185//185 184//184 181//181
f 182//182 183//183 149//149
f 186//186 185//185 181//181 179//179
f 93//93 185//185 186//186 65//65
f 180//180 152//152 187//187 177//177
f 178//178 180//180 177//177
f 187//187 188//188 177//177
f 170//170 168//168 189//189 174//174
f 168//168 167//167 190//190 189//189
f 190//190 192//192 191//191 189//189
f 191//191 192//192 194//194 193//193
f 192//192 196//196 195//195 194//194
f 195//195 196//196 197//197
f 199//199 191//191 193//193 198//198
f 199//199 198//198 57//57
f 190//190 167//167 165//165
f 164//164 200//200 165//165
f 201//201 200//200 164//164 162//162
f 202//202 201//201 162//162
f 201//201 202//202 204//204 203//203
f 202//202 206//206 205//205 204//204
f 205//205 208//208 207//207 204//204
f 210//210 209//209 208//208 205//205
f 211//211 201//201 203//203
f 204//204 207//207 212//212 203//203
f 213//213 160//160 158//158
f 156//156 157//157 166//166 169//169
f 147//147 118//118 146//146
f 144//144 143//143 155//155 151//151
f 143//143 141//141 213//213 158//158
f 155//155 143//143 158//158
f 142//142 131//131 133//133
f 214//214 135//135 132//132
f 216//216 135//135 214//214 215//215
f 217//217 216//216 215//215
f 214//214 218//218 215//215
f 220//220 217//217 215//215 219//219
f 132//132 129//129 222//222 221//221
f 218//218 214//214 132//132 221//221
f 222//222 223//223 221//221
f 221//221 223//223 225//225 224//224
f 224//224 225//225 227//227 226//226
f 225//225 230//230 229//229 228//228
f 227//227 225//225 228//228
f 228//228 229//229 231//231
f 234//234 233//233 232//232 231//231
f 229//229 234//234 231//231
f 233//233 237//237 236//236 235//235
f 232//232 233//233 235//235
f 236//236 237//237 238//238
f 237//237 239//239 238//238
f 236//236 240//240 235//235
f 242//242 235//235 240//240 241//241
f 243//243 242//242 241//241
f 243//243 241//241 245//245 244//244
f 246//246 243//243 244//244
f 248//248 247//247 243//243 246//246
f 248//248 246//246 250//250 249//249
f 251//251 248//248 249//249
f 253//253 248//248 251//251 252//252
f 254//254 253//253 252//252
f 253//253 254//254 255//255
f 255//255 254//254 257//257 256//256
f 259//259 258//258 255//255 256//256
f 261//261 259//259 256//256 260//260
f 263//263 259//259 261//261 262//262
f 262//262 261//261 265//265 264//264
f 267//267 266//266 262//262 264//264
f 269//269 266//266 267//267 268//268
f 270//270 266//266 269//269
f 272//272 271//271 270//270 269//269
f 270//270 271//271 274//274 273//273
f 274//274 276//276 275//275 273//273
f 219//219 277//277 276//276 274//274
f 273//273 275//275 258//258 263//263
f 280//280 279//279 278//278 268//268
f 267//267 280//280 268//268
f 279//279 280//280 282//282 281//281
f 283//283 279//279 281//281
f 283//283 286//286 285//285 284//284
f 279//279 283//283 284//284
f 285//285 286//286 287//287
f 289//289 288//288 285//285 287//287
f 291//291 290//290 289//289 287//287
f 293//293 290//290 291//291 292//292
f 295//295 293//293 292//292 294//294
f 297//297 295//295 294//294 296//296
f 299//299 297//297 296//296 298//298
f 301//301 300//300 299//299 298//298
f 302//302 301//301 298//298
f 301//301 302//302 303//303
f 305//305 304//304 301//301 303//303
f 306//306 305//305 303//303
f 308//308 305//305 306//306 307//307
f 310//310 309//309 308//308 307//307
f 312//312 309//309 310//310 311//311
f 313//313 312//312 311//311
f 313//313 311//311 314//314
f 314//314 311//311 316//316 315//315
f 315//315 316//316 318//318 317//317
f 320//320 319//319 315//315 317//317
f 318//318 316//316 321//321
f 319//319 320//320 322//322
f 324//324 319//319 322//322 323//323
f 322//322 326//326 325//325 323//323
f 329//329 328//328 327//327 323//323
f 325//325 329//329 323//323
f 327//327 328//328 330//330
f 331//331 324//324 327//327 330//330
f 333//333 332//332 331//331 330//330
f 332//332 333//333 334//334
f 336//336 335//335 332//332 334//334
f 338//338 336//336 334//334 337//337
f 340//340 339//339 338//338 337//337
f 341//341 340//340 337//337
f 340//340 341//341 342//342
f 344//344 340//340 342//342 343//343
f 345//345 344//344 343//343
f 347//347 346//346 344//344 345//345
f 344//344 346//346 348//348 339//339
f 346//346 349//349 348//348
f 349//349 351//351 350//350 348//348
f 353//353 351//351 349//349 352//352
f 354//354 351//351 353//353
f 354//354 356//356 355//355 350//350
f 351//351 354//354 350//350
f 354//354 357//357 356//356
f 360//360 359//359 358//358 356//356
f 357//357 360//360 356//356
f 360//360 357//357 361//361
f 363//363 362//362 360//360 361//361
f 364//364 363//363 361//361
f 363//363 364//364 365//365
f 367//367 366//366 363//363 365//365
f 368//368 367//367 365//365
f 370//370 369//369 366//366 367//367
f 372//372 371//371 369//369 370//370
f 373//373 368//368 365//365
f 375//375 364//364 361//361 374//374
f 377//377 375//375 374//374 376//376
f 379//379 375//375 377//377 378//378
f 381//381 379//379 378//378 380//380
f 373//373 379//379 381//381
f 383//383 382//382 381//381 380//380
f 385//385 382//382 383//383 384//384
f 387//387 385//385 384//384 386//386
f 389//389 388//388 385//385 387//387
f 390//390 389//389 387//387
f 389//389 390//390 391//391
f 393//393 392//392 389//389 391//391
f 395//395 394//394 393//393 391//391
f 394//394 396//396 393//393
f 391//391 390//390 398//398 397//397
f 399//399 395//395 391//391 397//397
f 395//395 399//399 400//400
f 397//397 398//398 402//402 401//401
f 401//401 402//402 404//404 403//403
f 404//404 405//405 403//403
f 404//404 407//407 406//406 405//405
f 407//407 409//409 408//408 406//406
f 409//409 411//411 410//410 408//408
f 410//410 411//411 412//412
f 412//412 415//415 414//414 413//413
f 416//416 410//410 412//412 413//413
f 417//417 415//415 412//412
f 417//417 376//376 352//352 418//418
f 415//415 417//417 418//418
f 419//419 416//416 413//413
f 421//421 419//419 413//413 420//420
f 423//423 419//419 421//421 422//422
f 425//425 423//423 422//422 424//424
f 427//427 425//425 424//424 426//426
f 429//429 428//428 427//427 426//426
f 431//431 428//428 429//429 430//430
f 433//433 432//432 431//431 430//430
f 435//435 432//432 433//433 434//434
f 437//437 436//436 435//435 434//434
f 439//439 438//438 436//436 437//437
f 441//441 440//440 438//438 439//439
f 443//443 442//442 440//440 441//441
f 445//445 442//442 443//443 444//444
f 447//447 446//446 445//445 444//444
f 449//449 448//448 446//446 447//447
f 451//451 450//450 448//448 449//449
f 453//453 450//450 451//451 452//452
f 455//455 454//454 453//453 452//452
f 454//454 457//457 456//456 453//453
f 459//459 455//455 452//452 458//458
f 461//461 460//460 455//455 459//459
f 463//463 462//462 461//461 459//459
f 465//465 462//462 463//463 464//464
f 467//467 466//466 465//465 464//464
f 470//470 469//469 468//468 465//465
f 466//466 470//470 465//465
f 472//472 470//470 466//466 471//471
f 474//474 473//473 470//470 472//472
f 476//476 475//475 473//473 474//474
f 478//478 473//473 475//475 477//477
f 479//479 478//478 477//477
f 475//475 481//481 480//480 477//477
f 481//481 483//483 482//482 480//480
f 485//485 483//483 481//481 484//484
f 487//487 486//486 483//483 485//485
f 489//489 488//488 485//485 484//484
f 491//491 490//490 488//488 489//489
f 493//493 492//492 490//490 491//491
f 260//260 492//492 493//493 494//494
f 496//496 491//491 489//489 495//495
f 483//483 486//486 497//497 482//482
f 486//486 498//498 497//497
f 245//245 499//499 100//100 497//497
f 498//498 245//245 497//497
f 482//482 501//501 500//500 480//480
f 502//502 479//479 477//477
f 503//503 495//495 476//476 474//474
f 504//504 503//503 474//474 472//472
f 505//505 504//504 472//472 471//471
f 507//507 504//504 505//505 506//506
f 508//508 507//507 506//506
f 510//510 509//509 507//507 508//508
f 512//512 511//511 509//509 510//510
f 509//509 511//511 514//514 513//513
f 511//511 516//516 515//515 514//514
f 515//515 516//516 517//517
f 520//520 519//519 518//518 517//517
f 516//516 520//520 517//517
f 518//518 519//519 521//521
f 521//521 519//519 523//523 522//522
f 522//522 523//523 525//525 524//524
f 525//525 523//523 527//527 526//526
f 529//529 528//528 525//525 526//526
f 530//530 529//529 526//526
f 529//529 530//530 531//531
f 534//534 533//533 532//532 531//531
f 530//530 534//534 531//531
f 532//532 533//533 536//536 535//535
f 535//535 536//536 538//538 537//537
f 537//537 538//538 540//540 539//539
f 538//538 542//542 541//541 540//540
f 542//542 543//543 506//506 541//541
f 545//545 544//544 543//543 542//542
f 547//547 546//546 544//544 545//545
f 547//547 550//550 549//549 548//548
f 546//546 547//547 548//548
f 512//512 546//546 548//548
f 551//551 537//537 539//539
f 540//540 553//553 552//552 539//539
f 552//552 553//553 555//555 554//554
f 553//553 557//557 556//556 555//555
f 556//556 467//467 558//558 555//555
f 559//559 552//552 554//554
f 555//555 558//558 560//560 554//554
f 560//560 558//558 562//562 561//561
f 564//564 560//560 561//561 563//563
f 566//566 564//564 563//563 565//565
f 568//568 567//567 564//564 566//566
f 570//570 567//567 568//568 569//569
f 559//559 567//567 570//570
f 568//568 571//571 569//569
f 574//574 573//573 572//572 569//569
f 571//571 574//574 569//569
f 574//574 571//571 575//575
f 577//577 574//574 575//575 576//576
f 579//579 578//578 577//577 576//576
f 580//580 579//579 576//576
f 582//582 577//577 578//578 581//581
f 583//583 582//582 581//581
f 329//329 582//582 583//583 584//584
f 585//585 329//329 584//584
f 587//587 586//586 585//585 584//584
f 588//588 587//587 584//584
f 590//590 589//589 585//585 586//586
f 592//592 590//590 586//586 591//591
f 590//590 592//592 593//593
f 586//586 587//587 595//595 594//594
f 591//591 586//586 594//594
f 587//587 598//598 597//597 596//596
f 595//595 587//587 596//596
f 597//597 598//598 599//599
f 600//600 595//595 596//596
f 602//602 601//601 600//600 596//596
f 603//603 602//602 596//596
f 601//601 605//605 604//604 594//594
f 600//600 601//601 594//594
f 607//607 606//606 604//604 605//605
f 606//606 607//607 343//343
f 609//609 608//608 607//607 605//605
f 610//610 609//609 605//605
f 610//610 611//611 609//609
f 611//611 610//610 613//613 612//612
f 612//612 613//613 615//615 614//614
f 614//614 615//615 616//616
f 616//616 615//615 602//602 617//617
f 618//618 616//616 617//617
f 420//420 619//619 608//608 609//609
f 602//602 603//603 620//620 617//617
f 617//617 620//620 621//621
f 620//620 623//623 622//622 621//621
f 622//622 623//623 625//625 624//624
f 626//626 622//622 624//624
f 625//625 623//623 599//599
f 628//628 627//627 626//626 624//624
f 580//580 628//628 624//624
f 628//628 630//630 629//629 627//627
f 629//629 632//632 631//631 627//627
f 631//631 632//632 634//634 633//633
f 632//632 636//636 635//635 634//634
f 636//636 638//638 637//637 635//635
f 640//640 631//631 633//633 639//639
f 642//642 640//640 639//639 641//641
f 643//643 642//642 641//641
f 626//626 640//640 642//642 622//622
f 625//625 579//579 624//624
f 642//642 643//643 644//644 621//621
f 622//622 642//642 621//621
f 615//615 613//613 601//601 602//602
f 597//597 603//603 596//596
f 604//604 591//591 594//594
f 645//645 588//588 584//584
f 588//588 645//645 581//581
f 598//598 587//587 588//588 581//581
f 578//578 598//598 581//581
f 645//645 583//583 581//581
f 628//628 580//580 576//576
f 582//582 573//573 574//574 577//577
f 568//568 566//566 630//630 575//575
f 571//571 568//568 575//575
f 630//630 566//566 565//565 629//629
f 563//563 638//638 636//636 565//565
f 561//561 646//646 638//638 563//563
f 562//562 647//647 646//646 561//561
f 646//646 647//647 458//458 648//648
f 536//536 545//545 542//542 538//538
f 649//649 535//535 537//537 551//551
f 651//651 650//650 649//649 551//551
f 326//326 650//650 651//651 572//572
f 652//652 532//532 535//535 649//649
f 534//534 550//550 547//547 533//533
f 532//532 652//652 531//531
f 654//654 528//528 529//529 653//653
f 528//528 654//654 655//655
f 658//658 657//657 656//656 655//655
f 654//654 658//658 655//655
f 656//656 659//659 524//524 655//655
f 661//661 659//659 656//656 660//660
f 663//663 662//662 659//659 661//661
f 664//664 663//663 661//661
f 663//663 664//664 665//665
f 666//666 663//663 665//665
f 524//524 525//525 528//528 655//655
f 659//659 662//662 522//522 524//524
f 662//662 667//667 521//521 522//522
f 669//669 668//668 518//518 521//521
f 667//667 669//669 521//521
f 671//671 669//669 667//667 670//670
f 673//673 672//672 671//671 670//670
f 666//666 673//673 670//670
f 668//668 669//669 675//675 674//674
f 519//519 520//520 549//549 527//527
f 523//523 519//519 527//527
f 518//518 668//668 517//517
f 515//515 677//677 676//676 514//514
f 514//514 676//676 678//678 513//513
f 513//513 678//678 679//679
f 678//678 680//680 679//679
f 682//682 496//496 681//681 679//679
f 680//680 682//682 679//679
f 682//682 680//680 683//683
f 507//507 509//509 513//513 679//679
f 681//681 507//507 679//679
f 543//543 544//544 510//510 508//508
f 543//543 508//508 506//506
f 557//557 505//505 471//471 556//556
f 468//468 469//469 684//684
f 469//469 478//478 685//685 684//684
f 470//470 473//473 478//478 469//469
f 558//558 467//467 464//464 562//562
f 461//461 462//462 468//468 684//684
f 77//77 461//461 684//684
f 647//647 463//463 459//459 458//458
f 450//450 687//687 686//686 448//448
f 687//687 688//688 686//686
f 686//686 688//688 690//690 689//689
f 689//689 690//690 692//692 691//691
f 692//692 693//693 691//691
f 694//694 451//451 449//449
f 695//695 694//694 449//449 447//447
f 446//446 689//689 691//691 445//445
f 696//696 695//695 447//447 444//444
f 691//691 693//693 442//442 445//445
f 443//443 696//696 444//444
f 440//440 697//697 400//400 438//438
f 634//634 441//441 439//439 633//633
f 436//436 699//699 698//698 435//435
f 639//639 437//437 434//434 641//641
f 698//698 432//432 435//435
f 434//434 433//433 643//643 641//641
f 643//643 433//433 430//430 644//644
f 618//618 429//429 426//426 616//616
f 700//700 425//425 427//427
f 426//426 424//424 614//614 616//616
f 700//700 701//701 423//423 425//425
f 424//424 422//422 612//612 614//614
f 611//611 421//421 420//420 609//609
f 413//413 414//414 619//619 420//420
f 619//619 414//414 418//418 347//347
f 703//703 409//409 407//407 702//702
f 408//408 701//701 700//700 406//406
f 405//405 406//406 700//700 427//427
f 428//428 405//405 427//427
f 698//698 401//401 403//403 431//431
f 432//432 698//698 431//431
f 698//698 699//699 397//397 401//401
f 384//384 702//702 386//386
f 402//402 398//398 387//387 386//386
f 388//388 704//704 382//382 385//385
f 706//706 705//705 704//704 388//388
f 708//708 707//707 705//705 706//706
f 709//709 708//708 706//706 392//392
f 711//711 710//710 708//708 709//709
f 713//713 711//711 709//709 712//712
f 715//715 713//713 712//712 714//714
f 712//712 396//396 714//714
f 384//384 383//383 703//703 702//702
f 703//703 383//383 380//380
f 417//417 377//377 376//376
f 359//359 717//717 716//716 358//358
f 719//719 718//718 717//717 359//359
f 720//720 719//719 359//359
f 717//717 718//718 721//721
f 723//723 722//722 719//719 720//720
f 716//716 725//725 312//312 724//724
f 358//358 716//716 724//724
f 725//725 716//716 726//726
f 352//352 349//349 346//346 347//347
f 418//418 352//352 347//347
f 606//606 343//343 342//342 593//593
f 592//592 606//606 593//593
f 341//341 728//728 727//727 593//593
f 342//342 341//341 593//593
f 340//340 344//344 339//339
f 348//348 350//350 338//338 339//339
f 728//728 341//341 337//337
f 724//724 729//729 335//335 336//336
f 355//355 724//724 336//336
f 335//335 729//729 730//730
f 728//728 333//333 330//330 727//727
f 332//332 335//335 730//730 331//331
f 329//329 325//325 573//573 582//582
f 589//589 328//328 329//329 585//585
f 731//731 650//650 326//326 322//322
f 320//320 731//731 322//322
f 318//318 653//653 317//317
f 315//315 319//319 324//324 331//331
f 731//731 320//320 317//317
f 312//312 313//313 729//729 724//724
f 725//725 726//726 732//732 308//308
f 309//309 725//725 308//308
f 721//721 733//733 732//732 726//726
f 733//733 735//735 734//734 732//732
f 734//734 735//735 26//26 736//736
f 737//737 310//310 307//307
f 307//307 306//306 657//657 658//658
f 737//737 307//307 658//658
f 737//737 658//658 321//321
f 302//302 738//738 661//661 660//660
f 303//303 302//302 660//660
f 301//301 304//304 300//300
f 304//304 739//739 300//300
f 741//741 740//740 299//299 300//300
f 739//739 741//741 300//300
f 741//741 739//739 736//736
f 738//738 302//302 298//298
f 740//740 742//742 297//297 299//299
f 738//738 298//298 296//296 665//665
f 664//664 738//738 665//665
f 294//294 673//673 666//666 665//665
f 296//296 294//294 665//665
f 744//744 743//743 293//293 295//295
f 292//292 672//672 673//673 294//294
f 743//743 745//745 290//290 293//293
f 746//746 745//745 743//743
f 16//16 14//14 748//748 747//747
f 745//745 746//746 16//16 747//747
f 748//748 749//749 747//747
f 291//291 672//672 292//292
f 285//285 288//288 750//750 284//284
f 752//752 751//751 278//278 284//284
f 750//750 752//752 284//284
f 754//754 753//753 752//752 750//750
f 753//753 756//756 755//755 752//752
f 755//755 756//756 757//757 272//272
f 288//288 749//749 754//754 750//750
f 282//282 280//280 758//758
f 674//674 283//283 281//281
f 282//282 677//677 281//281
f 278//278 751//751 268//268
f 280//280 267//267 264//264 758//758
f 760//760 759//759 253//253 255//255
f 257//257 254//254 252//252
f 251//251 761//761 252//252
f 250//250 762//762 249//249
f 761//761 251//251 249//249
f 245//245 241//241 499//499
f 250//250 246//246 244//244
f 764//764 763//763 239//239 237//237
f 233//233 764//764 237//237
f 765//765 239//239 763//763
f 764//764 766//766 763//763
f 766//766 764//764 767//767
f 242//242 232//232 235//235
f 232//232 242//242 231//231
f 234//234 229//229 230//230
f 276//276 277//277 224//224 226//226
f 226//226 227//227 759//759 760//760
f 277//277 218//218 221//221 224//224
f 131//131 142//142 145//145 130//130
f 222//222 129//129 126//126
f 122//122 121//121 768//768
f 123//123 122//122 765//765 763//763
f 766//766 123//123 763//763
f 116//116 118//118 147//147 149//149
f 183//183 116//116 149//149
f 768//768 121//121 117//117 114//114
f 115//115 116//116 183//183 184//184
f 112//112 115//115 184//184 94//94
f 97//97 102//102 92//92 95//95
f 500//500 501//501 96//96 83//83
f 88//88 86//86 81//81 82//82
f 76//76 769//769 460//460 461//461
f 77//77 76//76 461//461
f 75//75 79//79 84//84 74//74
f 769//769 76//76 73//73
f 70//70 69//69 769//769 73//73
f 67//67 62//62 457//457 454//454
f 769//769 69//69 67//67 460//460
f 59//59 186//186 179//179 58//58
f 58//58 175//175 176//176 55//55
f 63//63 60//60 56//56
f 176//176 54//54 55//55
f 770//770 63//63 56//56 53//53
f 771//771 770//770 53//53 48//48
f 50//50 46//46 711//711 713//713
f 49//49 771//771 48//48
f 44//44 42//42 772//772 710//710
f 194//194 41//41 43//43 193//193
f 40//40 38//38 371//371 372//372
f 774//774 773//773 35//35 36//36
f 773//773 776//776 775//775 29//29
f 35//35 773//773 29//29
f 775//775 776//776 777//777
f 776//776 778//778 17//17 777//777
f 212//212 778//778 776//776 773//773
f 775//775 27//27 29//29
f 31//31 28//28 735//735 733//733
f 34//34 31//31 733//733
f 26//26 25//25 741//741 736//736
f 741//741 25//25 23//23 740//740
f 21//21 20//20 744//744 742//742
f 19//19 746//746 743//743 744//744
f 20//20 19//19 744//744
f 778//778 15//15 17//17
f 746//746 19//19 16//16
f 208//208 209//209 9//9 11//11
f 748//748 10//10 7//7 754//754
f 749//749 748//748 754//754
f 6//6 5//5 756//756 753//753
f 2//2 216//216 217//217 1//1
f 139//139 216//216 2//2
f 4//4 8//8 3//3
f 138//138 139//139 2//2 3//3
f 209//209 8//8 9//9
f 779//779 213//213 141//141 137//137
f 140//140 779//779 137//137
f 778//778 212//212 207//207 12//12
f 15//15 778//778 12//12
f 756//756 5//5 1//1 757//757
f 7//7 6//6 753//753 754//754
f 23//23 21//21 742//742 740//740
f 755//755 272//272 269//269 268//268
f 751//751 755//755 268//268
f 244//244 498//498 486//486 487//487
f 762//762 250//250 244//244 487//487
f 278//278 279//279 284//284
f 264//264 265//265 780//780 758//758
f 780//780 265//265 494//494 683//683
f 484//484 481//481 475//475 476//476
f 222//222 126//126 125//125 781//781
f 223//223 222//222 781//781
f 125//125 123//123 766//766 767//767
f 781//781 125//125 767//767
f 782//782 781//781 767//767
f 122//122 768//768 109//109 108//108
f 765//765 122//122 108//108
f 128//128 129//129 132//132
f 120//120 124//124 127//127 119//119
f 111//111 109//109 768//768 114//114
f 188//188 156//156 169//169 171//171
f 94//94 184//184 185//185 93//93
f 223//223 781//781 782//782 230//230
f 225//225 223//223 230//230
f 782//782 767//767 764//764 233//233
f 234//234 782//782 233//233
f 765//765 108//108 106//106 238//238
f 239//239 765//765 238//238
f 215//215 218//218 277//277 219//219
f 103//103 107//107 110//110 102//102
f 85//85 87//87 71//71 72//72
f 759//759 227//227 228//228 247//247
f 228//228 231//231 242//242 243//243
f 247//247 228//228 243//243
f 241//241 240//240 105//105 499//499
f 258//258 259//259 263//263
f 784//784 783//783 761//761 249//249
f 762//762 784//784 249//249
f 105//105 101//101 98//98 100//100
f 499//499 105//105 100//100
f 676//676 677//677 282//282 758//758
f 780//780 676//676 758//758
f 507//507 681//681 503//503 504//504
f 502//502 500//500 83//83 80//80
f 275//275 276//276 226//226 760//760
f 782//782 234//234 230//230
f 238//238 106//106 104//104 105//105
f 240//240 236//236 238//238 105//105
f 1//1 217//217 220//220 757//757
f 102//102 110//110 91//91 92//92
f 68//68 71//71 66//66 64//64
f 258//258 275//275 760//760 255//255
f 253//253 759//759 247//247 248//248
f 245//245 498//498 244//244
f 270//270 273//273 263//263 262//262
f 266//266 270//270 262//262
f 100//100 99//99 501//501 482//482
f 497//497 100//100 482//482
f 257//257 785//785 256//256
f 783//783 785//785 257//257 252//252
f 761//761 783//783 252//252
f 784//784 762//762 487//487
f 256//256 785//785 492//492 260//260
f 492//492 785//785 783//783 490//490
f 488//488 784//784 487//487 485//485
f 494//494 493//493 682//682 683//683
f 682//682 493//493 491//491 496//496
f 495//495 489//489 484//484 476//476
f 216//216 139//139 134//134 135//135
f 119//119 127//127 130//130 146//146
f 118//118 119//119 146//146
f 91//91 112//112 94//94 90//90
f 206//206 779//779 210//210 205//205
f 156//156 188//188 187//187 150//150
f 153//153 156//156 150//150
f 36//36 39//39 195//195 197//197
f 774//774 36//36 197//197
f 211//211 774//774 197//197
f 193//193 43//43 45//45 198//198
f 62//62 63//63 770//770 457//457
f 271//271 220//220 219//219 274//274
f 95//95 92//92 88//88 82//82
f 747//747 749//749 288//288 289//289
f 84//84 85//85 72//72 74//74
f 732//732 734//734 305//305 308//308
f 460//460 67//67 454//454 455//455
f 265//265 261//261 260//260 494//494
f 490//490 783//783 784//784 488//488
f 480//480 500//500 502//502 477//477
f 678//678 676//676 780//780 683//683
f 680//680 678//678 683//683
f 478//478 479//479 685//685
f 534//534 530//530 526//526
f 468//468 462//462 465//465
f 13//13 14//14 16//16
f 779//779 140//140 210//210
f 152//152 180//180 182//182 149//149
f 148//148 152//152 149//149
f 17//17 18//18 22//22 777//777
f 773//773 774//774 211//211 203//203
f 212//212 773//773 203//203
f 172//172 174//174 199//199 57//57
f 54//54 176//176 172//172 57//57
f 735//735 28//28 26//26
f 710//710 772//772 707//707 708//708
f 290//290 745//745 747//747 289//289
f 757//757 220//220 271//271 272//272
f 742//742 744//744 295//295 297//297
f 736//736 739//739 304//304 305//305
f 734//734 736//736 305//305
f 675//675 669//669 671//671
f 281//281 677//677 515//515 517//517
f 668//668 674//674 281//281 517//517
f 681//681 496//496 495//495 503//503
f 662//662 663//663 666//666 670//670
f 667//667 662//662 670//670
f 549//549 550//550 527//527
f 656//656 657//657 660//660
f 321//321 658//658 654//654 653//653
f 318//318 321//321 653//653
f 572//572 651//651 570//570 569//569
f 213//213 779//779 206//206 161//161
f 160//160 213//213 161//161
f 154//154 155//155 158//158
f 187//187 152//152 150//150
f 161//161 206//206 202//202 162//162
f 157//157 159//159 163//163 166//166
f 177//177 188//188 171//171 173//173
f 200//200 201//201 211//211 197//197
f 196//196 200//200 197//197
f 189//189 191//191 199//199 174//174
f 210//210 140//140 138//138 3//3
f 8//8 209//209 210//210 3//3
f 113//113 115//115 112//112
f 207//207 208//208 11//11 12//12
f 65//65 186//186 59//59 61//61
f 30//30 35//35 29//29
f 51//51 50//50 713//713 715//715
f 755//755 751//751 752//752
f 501//501 99//99 96//96
f 287//287 286//286 675//675 671//671
f 672//672 291//291 287//287 671//671
f 685//685 78//78 77//77 684//684
f 657//657 306//306 303//303 660//660
f 638//638 646//646 648//648 637//637
f 786//786 37//37 32//32 33//33
f 38//38 37//37 786//786 371//371
f 722//722 786//786 33//33 719//719
f 371//371 786//786 722//722 369//369
f 772//772 372//372 370//370 707//707
f 362//362 723//723 720//720
f 366//366 723//723 362//362 363//363
f 718//718 34//34 733//733 721//721
f 360//360 362//362 720//720 359//359
f 725//725 309//309 312//312
f 356//356 358//358 724//724 355//355
f 196//196 192//192 190//190 165//165
f 200//200 196//196 165//165
f 45//45 47//47 52//52 57//57
f 198//198 45//45 57//57
f 51//51 688//688 687//687 456//456
f 771//771 49//49 51//51 456//456
f 46//46 44//44 710//710 711//711
f 690//690 688//688 51//51 715//715
f 705//705 367//367 368//368 704//704
f 392//392 706//706 388//388 389//389
f 714//714 396//396 394//394 697//697
f 693//693 692//692 714//714 697//697
f 456//456 687//687 450//450 453//453
f 376//376 374//374 353//353 352//352
f 442//442 693//693 697//697 440//440
f 516//516 511//511 512//512 548//548
f 520//520 516//516 548//548
f 471//471 466//466 467//467 556//556
f 452//452 451//451 694//694 648//648
f 458//458 452//452 648//648
f 564//564 567//567 559//559 554//554
f 560//560 564//564 554//554
f 648//648 694//694 695//695 637//637
f 727//727 589//589 590//590 593//593
f 578//578 579//579 625//625 599//599
f 598//598 578//578 599//599
f 696//696 443//443 441//441 634//634
f 635//635 696//696 634//634
f 748//748 14//14 10//10
f 89//89 93//93 65//65 66//66
f 24//24 27//27 775//775 777//777
f 22//22 24//24 777//777
f 195//195 39//39 41//41 194//194
f 457//457 770//770 771//771 456//456
f 716//716 717//717 721//721 726//726
f 697//697 394//394 395//395 400//400
f 675//675 286//286 283//283 674//674
f 502//502 80//80 78//78 685//685
f 479//479 502//502 685//685
f 738//738 664//664 661//661
f 464//464 463//463 647//647 562//562
f 311//311 310//310 737//737 321//321
f 316//316 311//311 321//321
f 549//549 520//520 548//548
f 544//544 546//546 512//512 510//510
f 506//506 505//505 557//557 541//541
f 527//527 550//550 534//534 526//526
f 533//533 547//547 545//545 536//536
f 541//541 557//557 553//553 540//540
f 317//317 653//653 529//529 531//531
f 652//652 731//731 317//317 531//531
f 650//650 731//731 652//652 649//649
f 570//570 651//651 551//551 539//539
f 552//552 559//559 570//570 539//539
f 369//369 722//722 723//723 366//366
f 707//707 370//370 367//367 705//705
f 712//712 709//709 392//392 393//393
f 396//396 712//712 393//393
f 375//375 379//379 373//373 365//365
f 364//364 375//375 365//365
f 398//398 390//390 387//387
f 378//378 377//377 417//417 412//412
f 411//411 378//378 412//412
f 411//411 409//409 703//703 380//380
f 378//378 411//411 380//380
f 407//407 404//404 402//402 386//386
f 702//702 407//407 386//386
f 448//448 686//686 689//689 446//446
f 400//400 399//399 699//699 436//436
f 438//438 400//400 436//436
f 701//701 416//416 419//419 423//423
f 730//730 314//314 315//315 331//331
f 565//565 636//636 632//632 629//629
f 334//334 333//333 728//728 337//337
f 627//627 631//631 640//640 626//626
f 607//607 608//608 345//345 343//343
f 613//613 610//610 605//605 601//601
f 644//644 618//618 617//617 621//621
f 33//33 34//34 718//718 719//719
f 42//42 40//40 372//372 772//772
f 692//692 690//690 715//715 714//714
f 361//361 357//357 354//354 353//353
f 374//374 361//361 353//353
f 704//704 368//368 373//373 381//381
f 382//382 704//704 381//381
f 699//699 399//399 397//397
f 414//414 415//415 418//418
f 410//410 416//416 701//701 408//408
f 403//403 405//405 428//428 431//431
f 729//729 313//313 314//314 730//730
f 637//637 695//695 696//696 635//635
f 350//350 355//355 336//336 338//338
f 633//633 439//439 437//437 639//639
f 608//608 619//619 347//347 345//345
f 422//422 421//421 611//611 612//612
f 430//430 429//429 618//618 644//644
f 327//327 324//324 323//323
f 325//325 326//326 572//572 573//573
f 575//575 630//630 628//628 576//576
f 330//330 328//328 589//589 727//727
f 583//583 645//645 584//584
f 579//579 580//580 624//624
f 604//604 606//606 592//592 591//591
f 595//595 600//600 594//594
f 620//620 603//603 597//597 599//599
f 623//623 620//620 599//599
